<!DOCTYPE svg PUBLIC "-//W3C//DTD SVG 20010904//EN" "http://www.w3.org/TR/2001/REC-SVG-20010904/DTD/svg10.dtd">
<svg version="1.0" xmlns="http://www.w3.org/2000/svg" width="605px" height="257px" viewBox="0 0 6050 2570" preserveAspectRatio="xMidYMid meet">
<g id="layer101" fill="#000000" stroke="none">
<path d="M3475 2561 c-17 -4 -48 -19 -70 -33 -84 -53 -339 -198 -349 -198 -3 0 -15 18 -26 40 l-20 40 -63 0 c-69 0 -106 -15 -123 -48 -6 -12 -18 -30 -27 -40 -12 -13 -19 -51 -26 -147 -5 -72 -14 -149 -21 -173 -11 -38 -10 -47 10 -93 20 -47 21 -62 15 -154 -18 -263 77 -386 276 -356 122 19 258 85 285 138 6 13 18 31 26 40 44 51 54 194 19 267 -24 49 -116 139 -167 164 l-33 15 37 29 c49 38 139 98 147 98 4 0 21 11 39 25 l33 25 6 -85 c4 -63 14 -102 36 -154 17 -38 31 -86 31 -106 0 -47 25 -99 53 -112 16 -8 29 -31 46 -84 36 -115 74 -173 141 -219 39 -26 70 -40 91 -40 42 0 125 56 138 93 6 15 14 27 19 27 13 0 22 25 32 85 4 28 20 91 35 140 23 76 28 109 29 210 1 146 -15 212 -81 345 l-48 95 -52 3 c-52 3 -52 3 -80 -40 -15 -24 -37 -63 -49 -88 l-20 -45 -13 50 c-15 62 -63 115 -102 115 l-28 0 15 35 c19 45 18 80 -3 116 -16 27 -22 29 -73 28 -30 -1 -69 -4 -85 -8z"/>
<path d="M4875 2561 c-17 -4 -48 -19 -70 -33 -84 -53 -339 -198 -349 -198 -3 0 -15 18 -26 40 l-20 40 -63 0 c-69 0 -106 -15 -123 -48 -6 -12 -18 -30 -27 -40 -12 -13 -19 -51 -26 -147 -5 -72 -14 -149 -21 -173 -11 -38 -10 -47 10 -93 20 -47 21 -62 15 -154 -18 -263 77 -386 276 -356 122 19 258 85 285 138 6 13 18 31 26 40 44 51 54 194 19 267 -24 49 -116 139 -167 164 l-33 15 37 29 c49 38 139 98 147 98 11 0 78 54 143 115 121 113 165 209 126 274 -17 29 -22 31 -74 30 -30 -1 -69 -4 -85 -8z"/>
<path d="M1554 2382 c-11 -10 -48 -26 -84 -35 -135 -34 -181 -58 -222 -117 -34 -49 -38 -60 -32 -95 9 -56 27 -88 71 -124 25 -20 49 -31 70 -31 30 0 63 21 63 41 0 5 6 9 14 9 10 0 18 -33 30 -117 9 -65 19 -127 21 -139 3 -16 -3 -22 -28 -30 -17 -5 -37 -19 -43 -31 -6 -13 -18 -31 -26 -40 -48 -57 -50 -167 -4 -227 40 -53 54 -57 138 -46 40 5 129 14 197 19 75 6 132 16 145 25 41 26 106 139 113 193 9 79 -21 112 -115 128 -34 5 -43 12 -47 31 -3 13 -8 36 -11 52 -3 15 -12 72 -20 127 -8 55 -17 114 -20 130 -5 26 -1 33 25 48 16 9 33 27 36 38 4 12 15 29 25 39 44 44 31 137 -21 151 -14 3 -78 10 -141 14 -107 6 -117 5 -134 -13z"/>
<path d="M5135 2393 c-18 -13 -85 -121 -95 -150 -17 -56 -21 -159 -7 -199 8 -21 20 -69 27 -106 12 -61 12 -70 -7 -113 -23 -53 -71 -108 -113 -130 -16 -8 -32 -24 -35 -36 -4 -11 -16 -30 -26 -40 -12 -12 -19 -33 -19 -57 0 -32 7 -45 43 -78 71 -69 102 -86 149 -82 38 3 45 8 79 56 55 80 53 79 95 42 49 -43 98 -62 159 -64 74 -1 101 9 113 44 6 16 16 30 21 30 16 0 33 78 25 113 -10 47 -41 106 -84 157 -38 46 -48 81 -70 240 -11 80 -48 202 -78 255 -68 122 -66 120 -118 123 -27 1 -54 -1 -59 -5z"/>
<path d="M450 2344 c-42 -63 -83 -188 -77 -239 2 -22 25 -83 49 -135 25 -52 49 -111 53 -130 6 -30 36 -136 66 -235 5 -16 9 -48 9 -70 0 -85 67 -153 139 -140 73 14 142 46 154 73 6 15 17 30 24 35 6 4 17 23 23 41 12 38 -3 135 -39 245 -35 108 -73 253 -67 258 3 4 54 9 113 13 60 3 119 12 132 19 35 19 121 101 121 116 0 6 9 20 19 29 31 28 37 90 12 125 -20 28 -24 29 -133 36 -87 5 -147 3 -261 -12 -143 -19 -148 -19 -177 -1 -19 11 -50 18 -80 18 -47 0 -50 -2 -80 -46z"/>
<path d="M2130 2384 c-68 -25 -111 -50 -116 -68 -4 -12 -15 -29 -26 -40 -15 -13 -19 -27 -15 -50 3 -17 12 -80 21 -141 9 -60 18 -115 20 -121 3 -6 0 -30 -5 -52 -7 -34 -4 -55 16 -119 17 -51 28 -111 31 -173 7 -121 16 -143 73 -179 74 -47 119 -56 207 -43 110 17 254 83 254 117 0 8 4 15 9 15 5 0 27 29 50 64 66 101 67 191 2 250 l-21 19 20 32 c28 45 50 121 50 172 0 31 -12 66 -46 130 -86 166 -114 181 -345 188 -90 3 -171 2 -179 -1z"/>
<path d="M700 1343 c-80 -11 -107 -25 -166 -91 -61 -68 -98 -121 -136 -195 -21 -41 -22 -41 -28 -17 -18 61 -102 219 -137 257 -36 38 -42 41 -83 37 -23 -2 -48 -9 -55 -14 -35 -29 -94 -296 -83 -375 4 -27 12 -86 18 -130 6 -44 11 -87 10 -95 0 -8 -2 -66 -5 -128 l-4 -113 34 -38 c29 -32 36 -49 45 -112 23 -167 31 -192 69 -232 20 -21 43 -43 52 -48 28 -14 112 17 161 61 37 32 49 52 68 112 13 40 26 76 29 80 3 4 35 -1 71 -11 36 -10 97 -22 136 -26 61 -6 72 -4 96 14 17 14 29 35 33 61 4 22 10 42 15 45 5 3 11 23 15 46 14 82 -73 208 -196 282 l-57 33 19 25 c10 13 19 28 19 33 0 5 7 18 17 28 22 24 55 108 103 256 l39 124 -20 53 c-23 61 -44 82 -79 78z"/>
<path d="M1288 1337 c-54 -17 -138 -82 -180 -138 -23 -31 -49 -87 -68 -146 -27 -84 -31 -110 -30 -197 1 -69 -3 -115 -14 -144 l-15 -43 58 -154 c45 -120 68 -167 107 -217 28 -34 60 -89 73 -120 26 -64 32 -70 80 -87 27 -9 39 -8 56 3 15 10 26 11 40 4 10 -6 44 -19 76 -28 56 -17 58 -17 113 5 118 48 198 116 260 219 41 68 102 249 118 352 10 64 9 78 -11 144 -72 236 -223 410 -458 529 -68 34 -135 40 -205 18z m226 -627 c68 -130 55 -150 -24 -38 -40 58 -50 79 -50 112 l0 41 20 -25 c11 -14 35 -54 54 -90z"/>
<path d="M2188 1329 c-10 -5 -18 -16 -18 -22 0 -7 -16 -37 -35 -67 -19 -30 -35 -63 -35 -73 0 -10 -7 -31 -15 -48 -13 -24 -14 -40 -5 -87 5 -31 17 -111 25 -177 30 -239 42 -311 58 -342 9 -18 17 -46 17 -62 0 -74 22 -134 67 -182 61 -65 102 -83 174 -76 33 3 75 15 98 28 34 19 44 32 58 76 20 65 38 70 29 9 -9 -58 8 -96 73 -166 28 -30 54 -63 57 -72 6 -20 40 -31 75 -26 30 4 47 39 94 193 37 119 37 122 40 325 4 228 -4 311 -39 412 -27 76 -91 193 -135 247 -25 31 -35 35 -87 39 -33 2 -78 -1 -101 -7 -35 -10 -48 -21 -82 -73 -23 -33 -44 -71 -47 -84 -13 -53 -28 -16 -49 122 -5 32 -12 43 -40 58 -19 10 -44 29 -56 42 -24 26 -88 33 -121 13z"/>
<path d="M3348 1297 c-54 -17 -138 -82 -180 -138 -23 -31 -49 -87 -68 -146 -27 -84 -31 -110 -30 -197 1 -69 -3 -115 -14 -144 l-15 -43 58 -154 c45 -120 68 -167 107 -217 28 -34 60 -89 73 -120 26 -64 32 -70 80 -87 27 -9 39 -8 56 3 15 10 26 11 40 4 10 -6 44 -19 76 -28 56 -17 58 -17 113 5 118 48 198 116 260 219 41 68 102 249 118 352 10 64 9 78 -11 144 -72 236 -223 410 -458 529 -68 34 -135 40 -205 18z m226 -627 c68 -130 55 -150 -24 -38 -40 58 -50 79 -50 112 l0 41 20 -25 c11 -14 35 -54 54 -90z"/>
<path d="M4698 1283 c-25 -29 -76 -203 -84 -285 l-7 -75 -54 -13 c-30 -6 -57 -10 -60 -7 -2 3 -11 38 -19 79 -9 40 -35 116 -59 168 -50 108 -89 142 -153 134 -57 -7 -66 -18 -94 -111 -54 -179 -59 -258 -25 -428 8 -44 22 -125 31 -180 8 -55 27 -179 42 -275 l27 -175 46 -43 c62 -57 85 -66 139 -52 75 19 97 43 128 137 28 91 29 130 5 283 -6 36 -7 68 -3 72 4 4 28 11 53 14 l46 6 6 -53 c12 -101 8 -228 -8 -253 -13 -20 -14 -28 -1 -65 47 -131 156 -173 268 -102 40 25 45 34 72 118 l29 91 -9 179 c-4 98 -7 224 -6 281 2 89 -1 113 -23 173 -14 39 -25 78 -25 87 -1 9 -9 35 -20 57 -11 22 -19 45 -20 51 0 23 -54 130 -83 167 -27 33 -35 37 -77 37 -32 0 -52 -6 -62 -17z"/>
<path d="M5774 1293 c-14 -9 -94 -179 -94 -198 0 -7 -8 -31 -18 -53 l-18 -40 -28 102 c-24 87 -33 107 -69 144 -36 37 -47 42 -85 42 -50 0 -88 -18 -143 -67 -30 -27 -39 -43 -39 -68 0 -18 -7 -39 -16 -46 -14 -12 -16 -30 -9 -139 6 -114 10 -133 46 -221 24 -59 39 -111 39 -138 0 -59 34 -131 73 -157 27 -18 38 -38 66 -120 55 -159 89 -211 178 -269 98 -64 105 -67 135 -47 14 9 50 34 80 54 46 31 57 43 63 75 4 21 12 44 17 51 6 7 12 41 14 75 1 34 14 95 28 136 39 113 56 210 56 326 0 173 -41 325 -132 485 -43 75 -43 75 -88 78 -25 1 -50 -1 -56 -5z"/>
</g>
<g id="layer102" fill="#000049" stroke="none">
<path d="M3470 2557 c-38 -13 -110 -53 -178 -98 -23 -16 -45 -29 -47 -29 -3 0 -45 -22 -94 -50 -49 -27 -91 -50 -95 -50 -3 0 -15 18 -27 41 l-20 41 -74 -4 c-54 -2 -79 -8 -94 -22 -28 -26 -28 -56 0 -49 19 5 20 4 10 -15 -6 -11 -15 -22 -21 -24 -5 -1 -12 -55 -15 -118 -3 -63 -13 -139 -22 -167 -16 -50 -16 -54 3 -90 16 -33 19 -59 19 -183 0 -163 11 -212 58 -260 78 -79 231 -56 444 68 52 31 58 38 73 94 18 68 17 143 -3 190 -20 47 -86 119 -145 158 -54 36 -68 37 -100 8 -23 -22 -24 -22 -14 -2 12 23 93 104 104 104 3 0 21 12 39 28 17 15 60 45 94 67 35 22 98 70 140 108 43 37 80 65 82 63 8 -8 -22 -49 -66 -90 l-43 -41 4 -95 c4 -77 11 -109 36 -170 18 -41 32 -89 32 -107 0 -47 16 -82 44 -95 20 -8 31 -29 52 -92 38 -117 69 -167 125 -204 66 -43 85 -42 164 14 17 12 40 24 52 28 25 8 32 23 43 91 4 28 20 91 35 140 23 76 28 109 29 210 1 146 -15 212 -81 345 l-48 95 -51 3 c-54 3 -66 -4 -79 -46 -6 -21 -4 -23 14 -17 15 5 21 2 21 -10 0 -8 -7 -18 -15 -21 -26 -10 -65 -112 -65 -170 0 -39 -4 -54 -14 -54 -24 0 -36 83 -17 119 15 27 -16 120 -52 159 -20 21 -40 32 -58 32 l-28 0 15 35 c19 45 18 80 -3 116 -16 27 -22 29 -73 28 -30 0 -71 -6 -90 -12z m-53 -92 c-32 -19 -60 -35 -63 -35 -3 0 -18 -8 -32 -19 -15 -10 -58 -36 -97 -56 -38 -21 -100 -57 -136 -81 -74 -49 -79 -51 -79 -29 0 8 4 15 9 15 4 0 25 11 45 25 20 13 66 40 102 60 37 19 72 39 78 44 11 9 73 44 155 88 69 36 83 27 18 -12z"/>
<path d="M4870 2557 c-38 -13 -110 -53 -178 -98 -23 -16 -45 -29 -47 -29 -3 0 -45 -22 -94 -50 -49 -27 -91 -50 -95 -50 -3 0 -15 18 -27 41 l-20 41 -74 -4 c-54 -2 -79 -8 -94 -22 -28 -26 -28 -56 0 -49 19 5 20 4 10 -15 -6 -11 -15 -22 -21 -24 -5 -1 -12 -55 -15 -118 -3 -63 -13 -139 -22 -167 -16 -50 -16 -54 3 -90 16 -33 19 -59 19 -183 0 -163 11 -212 58 -260 78 -79 231 -56 444 68 52 31 58 38 73 94 18 68 17 143 -3 190 -20 47 -86 119 -145 158 -54 36 -68 37 -100 8 -23 -22 -24 -22 -14 -2 15 28 70 82 114 110 20 13 39 28 42 33 4 6 44 33 89 60 46 28 105 72 133 99 27 26 64 59 83 72 57 39 77 115 44 171 -16 27 -22 29 -73 28 -30 0 -71 -6 -90 -12z m-53 -92 c-32 -19 -60 -35 -63 -35 -3 0 -18 -8 -32 -19 -15 -10 -58 -36 -97 -56 -38 -21 -100 -57 -136 -81 -74 -49 -79 -51 -79 -29 0 8 4 15 9 15 4 0 25 11 45 25 20 13 66 40 102 60 37 19 72 39 78 44 11 9 73 44 155 88 69 36 83 27 18 -12z"/>
<path d="M1553 2381 c-10 -10 -40 -24 -68 -30 -100 -25 -196 -64 -215 -89 -25 -31 -26 -46 -2 -37 56 23 155 55 158 52 3 -2 -22 -14 -54 -25 -32 -12 -72 -34 -90 -50 -28 -25 -31 -33 -26 -63 8 -41 29 -78 58 -101 23 -19 66 -24 66 -8 0 6 9 10 20 10 10 0 23 6 27 14 5 9 18 12 34 9 24 -4 26 -10 38 -101 14 -101 23 -163 36 -245 7 -41 6 -47 -8 -41 -9 3 -19 21 -23 40 -5 26 -11 34 -28 34 -28 0 -62 -24 -69 -50 -4 -16 0 -20 19 -20 17 0 22 -4 18 -15 -4 -8 -12 -15 -18 -15 -31 0 -47 -120 -22 -169 25 -48 36 -52 117 -42 41 6 129 15 196 20 92 8 130 16 157 32 20 11 36 25 36 31 0 5 4 7 9 4 16 -10 51 60 58 112 9 78 -21 111 -115 127 -32 5 -43 12 -46 28 -20 94 -25 129 -31 177 -8 77 -27 160 -36 160 -4 0 -11 -4 -14 -10 -3 -5 -11 -10 -18 -10 -19 0 76 90 109 105 52 22 70 121 29 155 -8 7 -58 16 -112 21 -146 13 -170 11 -190 -10z m17 -61 c0 -11 -79 -34 -88 -26 -3 3 2 6 10 6 9 0 18 7 22 15 6 16 56 21 56 5z"/>
<path d="M5135 2393 c-6 -5 -18 -20 -28 -35 -17 -28 -17 -28 8 -28 28 0 34 -17 10 -27 -9 -3 -24 -22 -34 -42 -21 -42 -36 -174 -22 -200 6 -10 19 -59 29 -108 l19 -91 -23 -43 c-13 -24 -23 -54 -24 -65 0 -24 -136 -154 -161 -154 -5 0 -9 -13 -9 -29 0 -34 36 -77 90 -110 36 -22 90 -28 90 -11 0 6 8 10 18 10 22 0 62 27 62 42 0 7 -7 3 -15 -8 -14 -17 -15 -16 -1 11 9 17 25 41 36 54 l21 24 37 -38 c20 -20 50 -44 67 -52 36 -19 147 -23 153 -5 2 7 12 12 22 12 35 0 50 12 61 52 17 66 -10 143 -81 228 -38 46 -48 81 -70 240 -11 80 -48 202 -78 255 -68 122 -66 120 -118 123 -27 1 -54 -1 -59 -5z"/>
<path d="M466 2368 c-21 -30 -20 -38 5 -38 15 0 19 -4 15 -16 -3 -9 -6 -18 -6 -20 0 -2 -6 -4 -12 -4 -14 0 -46 -93 -55 -157 -4 -32 3 -57 41 -138 26 -54 53 -126 62 -159 8 -34 19 -74 25 -91 34 -110 49 -171 49 -200 0 -119 65 -138 222 -65 86 41 96 64 73 176 -9 42 -24 102 -34 133 -10 31 -31 102 -46 159 l-28 102 -34 0 c-23 0 -33 5 -33 15 0 8 3 15 8 15 4 0 36 5 72 11 36 7 93 11 128 10 54 -1 71 3 116 29 29 16 76 48 104 70 40 33 52 48 57 80 5 31 2 46 -14 69 -20 28 -24 29 -133 36 -87 5 -147 3 -261 -12 -143 -19 -148 -19 -177 -1 -45 27 -124 25 -144 -4z"/>
<path d="M2130 2384 c-65 -24 -111 -50 -116 -66 -8 -28 -2 -30 39 -13 48 20 70 19 32 -2 -16 -9 -41 -27 -54 -40 -23 -22 -24 -27 -13 -71 6 -26 14 -74 18 -107 3 -33 10 -78 15 -101 5 -25 5 -54 -1 -74 -8 -27 -5 -50 16 -114 17 -52 27 -115 31 -176 3 -53 11 -105 19 -117 7 -11 38 -33 69 -48 49 -25 63 -27 119 -21 117 12 260 75 304 136 13 17 27 28 32 25 16 -10 51 64 57 118 6 59 -7 96 -49 134 l-24 23 -18 -31 c-10 -17 -20 -28 -23 -25 -6 6 37 62 44 58 10 -7 43 53 58 105 25 86 20 123 -31 220 -86 166 -114 181 -345 188 -90 3 -171 2 -179 -1z m204 -285 c22 -18 66 -86 66 -104 0 -17 -32 -1 -44 23 -19 37 -62 76 -75 67 -7 -3 -11 2 -11 14 0 28 29 27 64 0z m12 -327 c13 -8 44 -66 44 -82 0 -5 -9 -10 -20 -10 -13 0 -20 7 -20 19 0 11 -6 26 -13 33 -32 32 -25 63 9 40z"/>
<path d="M4986 1729 c-22 -21 -46 -39 -53 -39 -14 0 -36 -36 -31 -52 5 -13 138 101 138 119 0 21 -12 14 -54 -28z"/>
<path d="M1297 1339 c-76 -18 -190 -119 -228 -202 -30 -68 -24 -87 12 -34 33 50 104 108 163 132 58 25 65 17 11 -14 -60 -35 -144 -121 -176 -182 -21 -38 -24 -60 -26 -165 -2 -74 -8 -137 -17 -162 -15 -41 -14 -43 39 -184 43 -114 65 -157 108 -214 30 -39 63 -94 73 -122 15 -41 25 -54 49 -62 20 -7 31 -7 33 0 5 15 59 12 91 -4 15 -8 37 -13 48 -10 11 3 25 -1 32 -10 11 -13 18 -13 59 3 186 74 290 186 356 386 43 129 52 209 31 280 -56 195 -188 377 -346 478 -146 93 -209 110 -312 86z m224 -563 c21 -32 48 -83 60 -115 20 -54 20 -58 5 -107 -17 -55 -38 -80 -56 -69 -8 5 -7 14 3 29 8 12 20 39 25 58 8 29 7 36 -3 32 -8 -4 -33 23 -64 67 -44 62 -51 79 -51 120 0 26 -4 51 -10 54 -5 3 -10 18 -10 33 l1 27 31 -35 c16 -19 48 -61 69 -94z"/>
<path d="M112 1329 c-23 -9 -36 -29 -46 -71 -6 -26 -5 -27 24 -22 35 7 40 -8 11 -28 -14 -10 -24 -39 -37 -108 -9 -52 -17 -102 -16 -110 2 -51 23 -218 31 -248 6 -20 7 -42 1 -51 -4 -9 -8 -59 -8 -111 1 -93 2 -96 34 -128 25 -25 34 -44 39 -85 3 -28 13 -91 21 -138 14 -75 20 -91 48 -118 32 -31 34 -32 72 -18 21 7 64 29 95 49 57 36 88 83 103 154 6 26 3 32 -17 41 -13 6 -27 21 -30 32 -5 20 -4 20 42 -3 64 -33 138 -54 220 -62 60 -6 72 -4 77 10 3 9 15 16 25 16 11 0 22 8 25 18 3 9 9 24 14 33 5 9 12 33 16 53 15 81 -96 230 -212 287 -52 25 -46 28 -97 -42 -33 -45 -4 5 47 81 86 128 137 230 173 348 31 105 32 119 2 180 -21 41 -29 47 -58 50 -69 7 -112 -15 -179 -88 -34 -38 -62 -71 -62 -75 0 -3 -11 -21 -24 -38 -13 -18 -34 -52 -46 -77 -15 -28 -25 -39 -27 -30 -18 62 -102 224 -135 263 -35 39 -81 52 -126 36z m533 -93 c-37 -16 -154 -135 -177 -180 -9 -18 -24 -38 -32 -45 -9 -8 -16 -19 -16 -25 0 -7 -14 -34 -31 -60 -23 -37 -33 -46 -42 -37 -9 9 -9 16 1 29 6 9 23 40 37 67 51 102 163 229 219 249 52 18 81 20 41 2z"/>
<path d="M2188 1329 c-10 -5 -18 -16 -18 -22 0 -7 -16 -37 -35 -67 -35 -55 -46 -95 -22 -88 6 3 17 20 23 39 7 20 22 39 38 47 41 21 55 9 23 -20 -15 -14 -27 -30 -27 -35 0 -6 -14 -29 -31 -52 l-30 -42 15 -92 c9 -51 21 -132 26 -182 22 -181 36 -261 50 -285 8 -14 17 -55 20 -91 9 -84 34 -135 88 -176 59 -45 113 -45 203 -2 60 29 67 36 78 75 10 34 10 57 1 111 -8 46 -9 76 -2 93 l10 25 5 -25 c3 -14 14 -59 23 -100 10 -41 18 -102 19 -135 1 -62 13 -95 43 -117 9 -7 33 -34 52 -60 23 -32 42 -47 58 -48 12 0 22 4 22 9 0 5 10 11 22 13 17 2 27 21 55 108 43 133 50 200 48 435 -2 258 -29 359 -141 526 -50 76 -71 89 -142 89 -88 0 -117 -14 -162 -82 -22 -33 -43 -71 -46 -84 -13 -53 -30 -12 -49 117 -6 38 -12 48 -40 63 -19 10 -44 29 -56 42 -24 26 -88 33 -121 13z m352 -215 c-36 -39 -79 -117 -105 -189 -7 -19 -7 -19 -16 4 -16 40 69 203 116 221 44 18 46 8 5 -36z"/>
<path d="M3357 1299 c-76 -18 -190 -119 -228 -202 -30 -68 -24 -87 12 -34 33 50 104 108 163 132 58 25 65 17 11 -14 -60 -35 -144 -121 -176 -182 -21 -38 -24 -60 -26 -165 -2 -74 -8 -137 -17 -162 -15 -41 -14 -43 39 -184 43 -114 65 -157 108 -214 30 -39 63 -94 73 -122 15 -41 25 -54 49 -62 20 -7 31 -7 33 0 5 15 59 12 91 -4 15 -8 37 -13 48 -10 11 3 25 -1 32 -10 11 -13 18 -13 59 3 186 74 290 186 356 386 43 129 52 209 31 280 -56 195 -188 377 -346 478 -146 93 -209 110 -312 86z m224 -563 c21 -32 48 -83 60 -115 20 -54 20 -58 5 -107 -17 -55 -38 -80 -56 -69 -8 5 -7 14 3 29 8 12 20 39 25 58 8 29 7 36 -3 32 -8 -4 -33 23 -64 67 -44 62 -51 79 -51 120 0 26 -4 51 -10 54 -5 3 -10 18 -10 33 l1 27 31 -35 c16 -19 48 -61 69 -94z"/>
<path d="M4698 1283 c-17 -20 -41 -84 -34 -90 2 -3 13 0 24 6 30 16 41 13 35 -9 -3 -11 -11 -20 -19 -20 -20 0 -42 -90 -53 -212 -10 -115 -14 -128 -38 -128 -11 0 -14 6 -9 23 4 12 9 34 12 49 l6 26 -61 -15 c-34 -9 -64 -13 -67 -10 -3 3 -12 38 -21 79 -8 40 -34 116 -58 168 -36 79 -50 99 -81 117 -36 21 -67 23 -114 8 -22 -7 -40 -42 -40 -75 0 -16 5 -18 30 -13 36 7 37 1 6 -29 -44 -43 -75 -268 -47 -342 6 -13 17 -71 25 -128 9 -57 31 -203 51 -326 l34 -223 47 -45 c43 -42 49 -45 84 -39 20 3 59 21 86 38 38 26 51 42 66 82 19 56 23 130 9 202 -6 26 -13 69 -16 96 -6 42 -8 46 -25 37 -26 -14 -30 -13 -30 9 0 20 75 48 144 53 36 3 40 0 48 -27 5 -16 12 -92 15 -168 5 -120 4 -140 -11 -156 -16 -18 -16 -22 -1 -57 22 -54 62 -93 103 -100 27 -5 48 1 107 31 l74 37 22 66 c21 63 22 75 13 242 -5 96 -7 224 -6 283 2 95 -1 118 -23 178 -14 39 -25 78 -25 87 -1 9 -9 35 -20 57 -11 22 -19 45 -20 51 0 23 -54 130 -83 167 -27 33 -35 37 -77 37 -32 0 -52 -5 -62 -17z"/>
<path d="M5777 1289 c-21 -12 -97 -172 -97 -203 1 -12 12 7 27 42 19 47 31 64 50 68 33 9 43 -5 16 -23 -13 -9 -23 -20 -23 -25 0 -6 -14 -40 -31 -76 -29 -60 -31 -71 -26 -134 5 -62 4 -69 -11 -66 -12 2 -18 15 -20 43 -3 33 -24 117 -69 269 -3 10 -23 39 -45 62 -37 40 -45 44 -87 44 -77 0 -181 -79 -181 -136 0 -30 4 -30 45 1 18 14 48 30 66 35 l34 9 -30 -21 c-16 -12 -47 -39 -69 -60 l-38 -38 7 -118 c7 -105 11 -126 46 -207 25 -57 39 -105 39 -132 0 -62 26 -119 65 -142 29 -17 37 -32 70 -130 20 -60 47 -126 61 -146 13 -20 24 -40 24 -45 0 -5 37 -34 82 -65 73 -49 84 -53 98 -40 9 8 20 15 24 15 5 0 25 13 45 29 21 17 49 35 64 42 15 7 27 20 27 29 0 9 5 21 12 28 6 6 12 37 13 69 1 32 14 94 28 138 41 123 57 217 57 331 0 172 -42 324 -132 484 -41 72 -44 75 -83 77 -22 2 -48 -2 -58 -8z"/>
</g>
<g id="layer103" fill="#e4510f" stroke="none">
<path d="M3453 2460 c-18 -4 -54 -21 -81 -39 -27 -17 -52 -31 -57 -31 -4 0 -22 -10 -39 -23 -17 -13 -56 -36 -86 -51 -82 -42 -137 -77 -180 -113 l-37 -33 -13 48 c-20 71 -37 92 -74 92 -59 0 -65 -12 -75 -150 -5 -69 -13 -141 -18 -160 -8 -28 -5 -48 12 -95 20 -53 21 -69 13 -130 -5 -38 -6 -99 -2 -135 11 -113 44 -167 119 -196 37 -13 54 -14 116 -4 79 12 202 64 234 100 27 30 33 136 11 194 -20 53 -94 128 -175 176 l-61 37 29 40 c35 48 117 114 228 183 46 28 117 83 158 122 67 63 75 74 75 107 -1 64 -24 79 -97 61z m-403 -806 c0 -7 -9 -18 -19 -23 -15 -9 -20 -7 -25 12 -3 12 -6 30 -6 40 0 16 2 16 25 1 14 -9 25 -22 25 -30z"/>
<path d="M4853 2460 c-18 -4 -54 -21 -81 -39 -27 -17 -52 -31 -57 -31 -4 0 -22 -10 -39 -23 -17 -13 -56 -36 -86 -51 -82 -42 -137 -77 -180 -113 l-37 -33 -13 48 c-20 71 -37 92 -74 92 -59 0 -65 -12 -75 -150 -5 -69 -13 -141 -18 -160 -8 -28 -5 -48 12 -95 20 -53 21 -69 13 -130 -5 -38 -6 -99 -2 -135 11 -113 44 -167 119 -196 37 -13 54 -14 116 -4 79 12 202 64 234 100 27 30 33 136 11 194 -20 53 -94 128 -175 176 l-61 37 29 40 c35 48 117 114 228 183 46 28 117 83 158 122 67 63 75 74 75 107 -1 64 -24 79 -97 61z m-403 -806 c0 -7 -9 -18 -19 -23 -15 -9 -20 -7 -25 12 -3 12 -6 30 -6 40 0 16 2 16 25 1 14 -9 25 -22 25 -30z"/>
<path d="M1540 2287 c0 -10 -22 -20 -67 -31 -87 -21 -198 -64 -212 -80 -16 -19 6 -86 42 -123 32 -34 77 -45 77 -18 0 22 38 38 76 30 27 -5 34 -11 34 -30 0 -26 21 -161 49 -317 20 -109 21 -108 -49 -83 -65 23 -75 20 -88 -24 -18 -58 -15 -94 11 -132 l23 -34 105 3 c109 3 278 18 301 27 20 8 48 63 48 95 0 16 -10 41 -23 56 -19 22 -34 28 -80 32 -41 3 -58 9 -61 21 -5 18 -29 167 -50 311 l-14 95 25 33 c13 18 43 45 64 59 35 23 39 30 34 52 -11 43 -21 48 -111 55 -48 3 -97 9 -110 12 -17 4 -24 2 -24 -9z"/>
<path d="M3816 2239 c-26 -56 -28 -67 -22 -136 l6 -76 -47 7 c-25 3 -48 8 -50 10 -2 1 -15 43 -29 92 -19 67 -33 97 -59 123 -37 38 -61 38 -110 0 -27 -22 -27 -23 -23 -118 4 -80 10 -107 37 -165 17 -39 31 -85 31 -107 0 -49 16 -83 46 -99 17 -9 31 -35 50 -92 38 -115 68 -164 127 -203 59 -40 86 -43 112 -15 10 11 26 22 37 25 14 5 18 15 17 43 0 20 11 69 24 107 53 146 55 317 7 460 -28 83 -92 199 -111 203 -10 2 -24 -17 -43 -59z m-16 -391 c0 -17 -20 -47 -20 -31 0 6 -3 18 -6 27 -4 11 -1 16 10 16 9 0 16 -6 16 -12z"/>
<path d="M5093 2258 c-26 -50 -37 -155 -22 -195 6 -16 19 -68 30 -116 20 -89 20 -89 -1 -121 -11 -18 -21 -48 -23 -66 -3 -25 -19 -46 -68 -92 -35 -33 -74 -63 -86 -68 -35 -14 -29 -50 15 -91 81 -78 128 -90 150 -40 14 31 89 121 101 121 4 0 30 -22 57 -48 51 -49 105 -72 155 -67 13 1 32 3 43 4 39 2 -6 126 -73 203 -34 38 -41 56 -55 129 -9 47 -16 99 -16 116 0 16 -11 63 -25 103 -14 40 -25 81 -25 89 -1 9 -22 52 -49 96 -58 97 -77 104 -108 43z"/>
<path d="M442 2243 c-41 -153 -43 -133 29 -275 16 -32 35 -83 43 -115 8 -32 26 -98 40 -148 15 -49 31 -121 36 -160 7 -59 13 -73 37 -92 22 -18 35 -22 63 -16 44 8 120 40 120 50 -1 15 -60 240 -101 383 -23 80 -44 160 -47 178 -4 31 -3 32 29 32 19 0 70 6 115 14 44 8 99 12 121 9 48 -6 102 19 153 71 l34 36 -18 34 c-17 33 -19 33 -104 39 -62 5 -136 0 -255 -15 l-169 -22 -41 22 c-61 32 -71 29 -85 -25z"/>
<path d="M2100 2284 c-81 -30 -92 -38 -85 -63 10 -45 37 -235 37 -266 0 -16 -1 -46 -2 -66 -1 -19 8 -66 20 -105 12 -39 24 -110 27 -164 3 -52 10 -103 14 -112 12 -23 126 -78 163 -78 80 1 276 72 276 101 0 6 14 24 30 41 23 22 30 39 30 67 0 39 -33 100 -72 133 -20 18 -20 18 16 60 70 82 70 173 0 291 -83 137 -113 153 -304 161 -74 3 -142 3 -150 0z m221 -175 c36 -19 79 -89 79 -130 l0 -38 -57 6 c-101 9 -120 28 -122 116 -1 30 3 39 22 47 30 12 55 12 78 -1z m14 -333 c41 -17 68 -83 45 -111 -15 -18 -90 -40 -100 -28 -4 4 -10 41 -14 81 -6 68 -5 72 14 72 11 0 36 -6 55 -14z"/>
<path d="M1293 1210 c-74 -11 -173 -93 -215 -179 -20 -39 -23 -63 -25 -166 -1 -78 -7 -135 -16 -162 -9 -22 -14 -43 -11 -45 2 -3 27 -64 54 -137 47 -125 68 -163 131 -238 15 -17 34 -54 44 -83 20 -60 50 -81 88 -61 19 10 31 9 68 -3 24 -9 54 -16 66 -16 12 0 25 -4 28 -10 11 -17 39 -11 103 21 153 76 245 212 270 397 29 211 -173 511 -434 646 -68 35 -101 43 -151 36z m262 -492 c39 -79 46 -99 41 -131 -12 -71 -64 -148 -101 -147 -10 1 -61 65 -108 138 -27 43 -28 45 -22 165 3 67 10 137 16 156 l12 35 58 -61 c37 -40 74 -95 104 -155z"/>
<path d="M609 1197 c-49 -22 -140 -136 -225 -281 -54 -91 -59 -99 -69 -98 -6 0 -14 22 -19 49 -12 71 -95 249 -136 294 -20 22 -45 39 -57 39 -18 0 -22 -10 -34 -77 -16 -88 -15 -218 2 -320 6 -37 11 -79 10 -93 -1 -14 -3 -69 -5 -122 l-3 -98 32 -33 c34 -35 36 -43 65 -241 7 -48 16 -66 45 -96 35 -36 38 -37 72 -27 20 6 56 29 80 52 l45 40 -19 115 c-11 63 -18 117 -17 119 2 2 31 -12 66 -31 87 -49 141 -66 228 -77 76 -9 110 -2 110 22 0 35 -62 137 -113 185 -51 48 -143 102 -174 102 -24 0 -16 15 77 155 68 104 110 193 131 281 11 48 10 55 -12 100 -26 53 -40 60 -80 41z"/>
<path d="M2165 1173 c-9 -21 -25 -47 -36 -59 -20 -21 -20 -24 -5 -105 8 -46 18 -115 21 -154 4 -38 13 -102 21 -142 8 -40 14 -89 14 -109 0 -20 8 -51 19 -68 10 -18 21 -60 24 -98 7 -79 21 -109 76 -162 52 -51 116 -60 185 -26 l46 22 0 53 c0 30 -4 65 -10 79 -7 20 -3 45 21 113 17 49 34 92 38 96 7 7 27 -72 63 -243 5 -25 6 -60 3 -78 -7 -36 8 -66 54 -113 14 -14 37 -42 51 -62 36 -53 58 -46 83 28 18 52 21 92 24 310 4 207 1 262 -12 320 -19 81 -88 229 -140 298 l-35 47 -64 0 -64 0 -35 -52 c-19 -29 -44 -78 -55 -109 -11 -31 -29 -71 -40 -88 l-19 -32 -22 53 c-21 53 -50 175 -51 213 0 13 -18 32 -50 53 -28 17 -50 37 -50 42 0 6 -9 10 -20 10 -13 0 -25 -12 -35 -37z"/>
<path d="M3353 1170 c-74 -11 -173 -93 -215 -179 -20 -39 -23 -63 -25 -166 -1 -78 -7 -135 -16 -162 -9 -22 -14 -43 -11 -45 2 -3 27 -64 54 -137 47 -125 68 -163 131 -238 15 -17 34 -54 44 -83 20 -60 50 -81 88 -61 19 10 31 9 68 -3 24 -9 54 -16 66 -16 12 0 25 -4 28 -10 11 -17 39 -11 103 21 153 76 245 212 270 397 29 211 -173 511 -434 646 -68 35 -101 43 -151 36z m262 -492 c39 -79 46 -99 41 -131 -12 -71 -64 -148 -101 -147 -10 1 -61 65 -108 138 -27 43 -28 45 -22 165 3 67 10 137 16 156 l12 35 58 -61 c37 -40 74 -95 104 -155z"/>
<path d="M4677 1113 c-9 -32 -19 -94 -22 -138 -4 -44 -11 -101 -16 -127 l-11 -46 -76 -17 c-42 -10 -91 -23 -108 -30 l-32 -13 -17 96 c-13 68 -30 122 -62 186 -52 108 -60 117 -103 119 l-33 2 -18 -80 c-22 -99 -23 -184 -4 -267 8 -35 26 -139 40 -233 14 -93 35 -228 46 -299 l21 -130 41 -38 c49 -44 92 -49 143 -17 29 17 34 26 34 57 0 37 -34 263 -50 335 l-8 38 45 20 c60 26 169 53 186 46 20 -7 36 -103 39 -228 2 -85 -1 -111 -14 -131 -16 -24 -15 -27 13 -76 16 -28 39 -56 51 -63 33 -18 95 -12 134 12 l36 22 -6 221 c-4 122 -7 230 -7 241 0 11 3 41 6 67 6 38 1 66 -25 150 -58 185 -101 288 -142 341 -43 54 -62 49 -81 -20z"/>
<path d="M5762 1158 c-6 -7 -18 -33 -28 -58 -9 -25 -23 -54 -31 -65 -16 -24 -17 -72 -2 -149 6 -32 8 -60 6 -62 -3 -3 -34 0 -70 7 l-65 12 -32 118 c-30 106 -37 122 -75 159 -50 49 -72 48 -136 -9 l-41 -36 10 -120 c9 -103 15 -132 46 -203 22 -51 36 -100 36 -125 0 -63 27 -122 64 -142 29 -16 37 -30 66 -119 50 -154 88 -212 181 -274 70 -46 79 -49 91 -35 7 9 33 29 58 45 44 28 45 30 46 81 0 31 13 86 31 137 59 163 68 353 24 524 -30 115 -134 326 -160 326 -5 0 -13 -6 -19 -12z m-65 -566 c9 -5 10 -17 4 -37 l-8 -30 -12 29 c-6 16 -14 33 -17 37 -6 11 17 11 33 1z"/>
</g>
<g id="layer104" fill="#f09109" stroke="none">
<path d="M3453 2460 c-18 -4 -54 -21 -81 -39 -27 -17 -52 -31 -57 -31 -4 0 -22 -10 -39 -23 -17 -13 -56 -36 -86 -51 -82 -42 -137 -77 -180 -113 l-37 -33 -13 48 c-20 71 -37 92 -74 92 -59 0 -65 -12 -75 -150 -5 -69 -13 -141 -18 -160 -8 -28 -5 -48 12 -95 20 -53 21 -69 13 -130 -5 -38 -6 -99 -2 -135 11 -113 44 -167 119 -196 37 -13 54 -14 116 -4 79 12 202 64 234 100 27 30 33 136 11 194 -20 53 -94 128 -175 176 l-61 37 29 40 c35 48 117 114 228 183 46 28 117 83 158 122 67 63 75 74 75 107 -1 64 -24 79 -97 61z m57 -60 c0 -26 -130 -143 -208 -186 -37 -20 -79 -48 -94 -62 l-28 -26 0 65 c0 61 2 65 33 85 77 50 134 84 141 84 4 0 26 13 50 29 39 27 82 42 99 33 4 -2 7 -11 7 -22z m-268 -659 c39 -62 40 -141 2 -174 -14 -12 -34 -25 -45 -29 -18 -7 -19 -1 -19 134 0 157 3 161 62 69z m-192 -87 c0 -7 -9 -18 -19 -23 -15 -9 -20 -7 -25 12 -3 12 -6 30 -6 40 0 16 2 16 25 1 14 -9 25 -22 25 -30z"/>
<path d="M4853 2460 c-18 -4 -54 -21 -81 -39 -27 -17 -52 -31 -57 -31 -4 0 -22 -10 -39 -23 -17 -13 -56 -36 -86 -51 -82 -42 -137 -77 -180 -113 l-37 -33 -13 48 c-20 71 -37 92 -74 92 -59 0 -65 -12 -75 -150 -5 -69 -13 -141 -18 -160 -8 -28 -5 -48 12 -95 20 -53 21 -69 13 -130 -5 -38 -6 -99 -2 -135 11 -113 44 -167 119 -196 37 -13 54 -14 116 -4 79 12 202 64 234 100 27 30 33 136 11 194 -20 53 -94 128 -175 176 l-61 37 29 40 c35 48 117 114 228 183 46 28 117 83 158 122 67 63 75 74 75 107 -1 64 -24 79 -97 61z m57 -60 c0 -26 -130 -143 -208 -186 -37 -20 -79 -48 -94 -62 l-28 -26 0 65 c0 61 2 65 33 85 77 50 134 84 141 84 4 0 26 13 50 29 39 27 82 42 99 33 4 -2 7 -11 7 -22z m-268 -659 c39 -62 40 -141 2 -174 -14 -12 -34 -25 -45 -29 -18 -7 -19 -1 -19 134 0 157 3 161 62 69z m-192 -87 c0 -7 -9 -18 -19 -23 -15 -9 -20 -7 -25 12 -3 12 -6 30 -6 40 0 16 2 16 25 1 14 -9 25 -22 25 -30z"/>
<path d="M1540 2287 c0 -10 -22 -20 -67 -31 -87 -21 -198 -64 -212 -80 -16 -19 6 -86 42 -123 32 -34 77 -45 77 -18 0 22 38 38 76 30 27 -5 34 -11 34 -30 0 -26 21 -161 49 -317 20 -109 21 -108 -49 -83 -65 23 -75 20 -88 -24 -18 -58 -15 -94 11 -132 l23 -34 105 3 c57 2 147 7 199 12 89 9 97 12 123 42 34 41 36 87 4 124 -19 22 -34 28 -80 32 -41 3 -58 9 -61 21 -5 18 -29 167 -50 311 l-14 95 25 33 c13 18 43 45 64 59 35 23 39 30 34 52 -11 43 -21 48 -111 55 -48 3 -97 9 -110 12 -17 4 -24 2 -24 -9z m199 -53 c2 -2 -19 -24 -46 -48 -75 -67 -79 -85 -58 -219 9 -62 23 -145 31 -186 8 -40 14 -84 14 -97 0 -38 34 -64 83 -64 74 0 106 -39 72 -87 -17 -24 -46 -30 -178 -36 l-79 -4 6 51 c8 61 8 39 0 407 l-6 296 79 -5 c43 -2 80 -6 82 -8z"/>
<path d="M3824 2253 c-9 -26 -22 -54 -27 -61 -6 -7 -7 -44 -3 -89 l6 -76 -47 7 c-25 3 -48 8 -50 10 -2 1 -15 43 -29 92 -19 67 -33 97 -59 123 -37 38 -61 38 -110 0 -27 -22 -27 -23 -23 -118 4 -80 10 -107 37 -165 17 -39 31 -85 31 -107 0 -49 16 -83 46 -99 17 -9 31 -35 50 -92 38 -115 68 -164 127 -203 59 -40 86 -43 112 -15 10 11 26 22 37 25 14 5 18 15 17 43 0 20 11 69 24 107 70 194 53 395 -51 590 -46 87 -64 93 -88 28z m82 -115 c47 -112 57 -170 52 -299 -4 -96 -10 -128 -37 -198 -17 -47 -31 -94 -31 -105 0 -12 -12 -29 -25 -39 -25 -18 -26 -18 -70 19 l-45 36 0 110 0 110 23 -6 c35 -8 58 14 64 62 7 52 -8 72 -53 72 -34 0 -34 0 -34 46 0 44 1 46 25 40 14 -4 35 -1 47 5 19 10 20 17 14 93 -6 83 6 140 29 133 5 -2 24 -37 41 -79z m-106 -290 c0 -17 -20 -47 -20 -31 0 6 -3 18 -6 27 -4 11 -1 16 10 16 9 0 16 -6 16 -12z"/>
<path d="M5093 2258 c-26 -50 -37 -155 -22 -195 6 -16 19 -68 30 -116 20 -89 20 -89 -1 -121 -11 -18 -21 -48 -23 -66 -3 -25 -19 -46 -68 -92 -35 -33 -74 -63 -86 -68 -35 -14 -29 -50 15 -91 81 -78 128 -90 150 -40 15 34 89 121 103 121 5 0 25 -18 44 -39 48 -53 90 -71 165 -71 l62 0 -7 38 c-9 54 -40 114 -84 164 -34 38 -41 56 -55 129 -9 47 -16 99 -16 116 0 16 -11 63 -25 103 -14 40 -25 81 -25 89 -1 9 -22 52 -49 96 -58 97 -77 104 -108 43z m134 -216 c13 -42 28 -108 33 -147 21 -157 30 -188 70 -231 38 -42 61 -79 74 -121 6 -20 4 -23 -19 -23 -40 0 -90 27 -128 69 -19 21 -41 41 -50 44 -15 6 -17 33 -17 253 0 136 3 244 7 240 4 -3 17 -41 30 -84z"/>
<path d="M442 2243 c-41 -153 -43 -133 29 -275 16 -32 35 -83 43 -115 8 -32 26 -98 40 -148 15 -49 31 -121 36 -160 7 -59 13 -73 37 -92 22 -18 35 -22 63 -16 44 8 120 40 120 50 -1 15 -60 240 -101 383 -23 80 -44 160 -47 178 -4 31 -3 32 29 32 19 0 70 6 115 14 44 8 99 12 121 9 48 -6 102 19 153 71 l34 36 -18 34 c-17 33 -19 33 -104 39 -62 5 -136 0 -255 -15 l-169 -22 -41 22 c-61 32 -71 29 -85 -25z m593 -7 c31 -2 24 -26 -17 -59 -35 -28 -42 -30 -143 -33 l-105 -3 0 44 0 44 48 6 c26 4 52 8 57 10 6 2 39 1 75 -2 36 -3 74 -6 85 -7z"/>
<path d="M2100 2284 c-81 -30 -92 -38 -85 -63 10 -45 37 -235 37 -266 0 -16 -1 -46 -2 -66 -1 -19 8 -66 20 -105 12 -39 24 -110 27 -164 3 -52 10 -103 14 -112 12 -22 126 -78 160 -78 77 0 279 73 279 100 0 6 14 25 30 42 23 22 30 39 30 67 0 39 -33 100 -72 133 -20 18 -20 18 16 60 70 82 70 173 0 291 -83 137 -113 153 -304 161 -74 3 -142 3 -150 0z m310 -66 c76 -38 150 -162 150 -250 0 -55 -15 -91 -54 -127 -29 -27 -35 -75 -11 -84 22 -9 75 -87 75 -113 0 -51 -114 -136 -205 -153 l-45 -8 0 53 c0 51 1 53 34 64 18 6 43 22 56 35 19 20 22 32 18 69 -7 57 -29 92 -73 113 -30 14 -35 22 -35 52 l0 36 48 -3 c60 -5 74 10 74 78 0 42 -6 61 -36 106 -20 30 -48 60 -61 66 -20 9 -25 19 -25 50 0 33 3 38 23 38 12 0 43 -10 67 -22z m-73 -116 c34 -27 63 -84 63 -124 l0 -37 -57 6 c-101 9 -120 28 -122 116 -1 30 3 39 22 47 35 14 70 11 94 -8z m-2 -326 c41 -17 68 -83 45 -111 -15 -18 -90 -40 -100 -28 -4 4 -10 41 -14 81 -6 68 -5 72 14 72 11 0 36 -6 55 -14z"/>
<path d="M1293 1210 c-74 -11 -173 -93 -215 -179 -20 -39 -23 -64 -25 -161 0 -63 -7 -136 -14 -161 -12 -45 -11 -50 40 -185 41 -108 65 -153 106 -207 30 -38 62 -91 72 -119 21 -60 50 -78 88 -58 20 11 31 10 67 -4 24 -9 53 -16 65 -16 12 0 25 -4 28 -10 11 -17 39 -11 103 21 153 76 245 212 270 397 29 211 -173 511 -434 646 -68 35 -101 43 -151 36z m319 -209 c86 -80 153 -181 195 -291 39 -103 41 -159 10 -266 -27 -95 -83 -176 -162 -234 -70 -52 -95 -61 -150 -53 l-45 6 0 117 c0 111 1 118 19 113 65 -17 160 106 161 208 0 57 -57 177 -128 271 l-52 67 0 86 0 86 42 -23 c23 -13 73 -52 110 -87z m-58 -281 c25 -51 46 -104 46 -119 0 -58 -68 -162 -105 -161 -10 1 -61 65 -108 138 -27 43 -28 45 -22 165 3 67 10 137 16 156 l12 35 58 -61 c36 -40 74 -95 103 -153z"/>
<path d="M608 1197 c-42 -19 -198 -208 -198 -240 0 -5 -15 -29 -32 -55 -18 -26 -37 -55 -43 -66 -16 -31 -29 -20 -39 31 -4 26 -29 95 -54 152 -70 157 -145 225 -163 146 -27 -121 -30 -163 -19 -270 6 -61 16 -127 22 -147 8 -27 8 -45 0 -65 -6 -15 -10 -65 -9 -110 2 -77 4 -84 33 -115 28 -29 34 -45 48 -138 9 -58 19 -119 21 -136 3 -17 20 -45 39 -63 30 -29 39 -33 70 -27 21 4 54 24 81 49 l47 42 -19 115 c-11 63 -19 116 -17 118 1 2 42 -17 90 -42 96 -48 164 -66 250 -66 38 0 56 4 60 14 11 30 -47 134 -107 191 -52 50 -144 105 -176 105 -24 0 -16 15 77 155 68 104 110 193 131 281 11 48 10 55 -12 100 -26 53 -40 60 -81 41z m50 -70 c22 -45 -24 -176 -108 -302 -22 -33 -58 -90 -81 -128 -38 -62 -40 -69 -27 -90 9 -12 35 -28 62 -36 77 -22 157 -91 204 -175 l22 -41 -25 -3 c-45 -6 -129 18 -205 57 l-75 38 -3 214 c-3 204 -2 216 19 259 48 97 168 245 193 237 6 -2 17 -15 24 -30z"/>
<path d="M2165 1173 c-9 -21 -24 -47 -35 -58 -17 -19 -17 -26 -5 -100 7 -44 16 -114 19 -155 4 -41 14 -107 22 -147 8 -40 14 -89 14 -109 0 -20 8 -51 19 -68 10 -18 21 -60 24 -98 7 -77 16 -99 61 -146 61 -66 125 -79 203 -41 43 21 43 21 43 74 0 30 -4 65 -10 79 -7 20 -3 45 21 113 17 49 34 91 38 96 4 4 12 -14 19 -40 39 -165 53 -241 51 -272 -3 -59 -1 -63 61 -131 33 -36 60 -71 60 -78 0 -8 9 -12 21 -10 16 2 26 18 42 63 18 52 21 92 24 310 4 207 1 262 -12 320 -19 81 -88 229 -140 298 l-35 47 -64 0 c-62 0 -64 -1 -89 -37 -14 -21 -38 -65 -52 -98 -14 -33 -36 -79 -48 -103 l-22 -43 -22 50 c-21 46 -53 179 -53 218 0 10 -21 32 -50 51 -28 17 -50 37 -50 42 0 6 -9 10 -20 10 -13 0 -25 -12 -35 -37z m528 -160 c61 -93 83 -141 107 -237 18 -74 20 -106 17 -317 -3 -147 -9 -248 -16 -273 l-13 -39 -46 54 c-45 50 -47 56 -53 128 -9 101 -56 295 -79 323 -16 20 -20 21 -43 9 -14 -8 -31 -28 -37 -45 -7 -17 -16 -40 -20 -51 -5 -12 -9 68 -9 193 l-1 213 35 54 c32 51 37 55 74 55 38 0 42 -3 84 -67z"/>
<path d="M3353 1170 c-74 -11 -173 -93 -215 -179 -20 -39 -23 -64 -25 -161 0 -63 -7 -136 -14 -161 -12 -45 -11 -50 40 -185 41 -108 65 -153 106 -207 30 -38 62 -91 72 -119 21 -60 50 -78 88 -58 20 11 31 10 67 -4 24 -9 53 -16 65 -16 12 0 25 -4 28 -10 11 -17 39 -11 103 21 153 76 245 212 270 397 29 211 -173 511 -434 646 -68 35 -101 43 -151 36z m319 -209 c86 -80 153 -181 195 -291 39 -103 41 -159 10 -266 -27 -95 -83 -176 -162 -234 -70 -52 -95 -61 -150 -53 l-45 6 0 117 c0 111 1 118 19 113 65 -17 160 106 161 208 0 57 -57 177 -128 271 l-52 67 0 86 0 86 42 -23 c23 -13 73 -52 110 -87z m-58 -281 c25 -51 46 -104 46 -119 0 -58 -68 -162 -105 -161 -10 1 -61 65 -108 138 -27 43 -28 45 -22 165 3 67 10 137 16 156 l12 35 58 -61 c36 -40 74 -95 103 -153z"/>
<path d="M4676 1112 c-9 -32 -16 -86 -16 -121 0 -34 -7 -91 -16 -126 l-16 -63 -77 -17 c-42 -10 -90 -23 -107 -30 l-32 -13 -17 96 c-13 68 -30 122 -62 186 -51 105 -57 113 -100 122 -30 6 -32 4 -42 -32 -31 -121 -39 -232 -21 -294 6 -19 28 -147 50 -285 67 -433 58 -395 104 -437 48 -44 91 -49 142 -17 29 17 34 26 34 57 0 37 -34 263 -50 335 l-8 38 46 21 c51 22 144 47 178 48 28 0 33 -25 44 -199 7 -115 6 -137 -9 -162 -15 -27 -15 -31 8 -75 42 -79 99 -96 181 -54 l42 22 -6 221 c-4 122 -7 231 -7 242 0 11 3 41 6 67 6 38 1 66 -25 150 -58 185 -101 288 -142 341 -43 54 -62 49 -82 -21z m94 -87 c17 -35 30 -70 30 -77 0 -8 6 -22 14 -33 7 -11 17 -36 20 -55 4 -19 19 -68 33 -108 24 -67 25 -78 15 -120 -9 -34 -10 -68 -2 -122 5 -41 10 -141 10 -222 0 -141 -1 -148 -22 -162 -45 -32 -94 -17 -122 38 -13 25 -13 32 -1 49 26 37 -1 373 -32 398 -12 10 -94 9 -143 -2 -12 -3 -16 10 -18 63 l-3 68 40 6 c22 4 48 12 58 19 25 19 43 89 52 206 12 153 21 160 71 54z"/>
<path d="M5756 1148 c-9 -12 -16 -26 -16 -31 0 -4 -12 -33 -26 -62 -26 -53 -27 -56 -16 -141 7 -48 10 -89 8 -91 -2 -2 -33 1 -69 8 l-65 12 -32 118 c-30 106 -37 122 -75 159 -50 49 -71 48 -135 -7 l-41 -36 7 -106 c7 -112 19 -160 64 -254 21 -42 27 -67 23 -91 -8 -51 22 -120 61 -141 28 -15 37 -32 71 -129 57 -162 84 -202 176 -264 70 -46 79 -49 91 -35 7 9 33 29 58 45 44 28 45 30 46 81 0 31 13 86 31 137 59 163 68 353 24 524 -31 116 -134 326 -161 326 -5 0 -16 -10 -24 -22z m83 -149 c106 -230 117 -445 34 -674 -20 -55 -36 -116 -36 -135 0 -29 -6 -39 -39 -63 l-39 -28 -60 42 -59 42 0 169 0 169 22 -21 c12 -11 28 -20 35 -20 20 0 42 42 49 91 6 41 4 46 -20 57 -15 7 -40 12 -56 12 l-30 0 0 70 0 70 45 -2 c67 -3 71 5 57 123 -10 87 -10 103 3 115 8 9 15 19 15 24 0 5 5 21 10 36 11 27 11 27 25 7 8 -11 27 -49 44 -84z m-142 -407 c9 -5 10 -17 4 -37 l-8 -30 -12 29 c-6 16 -14 33 -17 37 -6 11 17 11 33 1z"/>
</g>
<g id="layer105" fill="#f8bf05" stroke="none">
<path d="M3453 2460 c-18 -4 -54 -21 -81 -39 -27 -17 -52 -31 -57 -31 -4 0 -22 -10 -39 -23 -17 -13 -56 -36 -86 -51 -82 -42 -137 -77 -180 -113 l-37 -33 -13 48 c-20 71 -37 92 -74 92 -59 0 -65 -12 -75 -150 -5 -69 -13 -141 -18 -160 -8 -28 -5 -48 12 -95 20 -53 21 -69 13 -130 -5 -38 -6 -99 -2 -135 11 -113 44 -167 119 -196 37 -13 54 -14 116 -4 79 12 202 64 234 100 27 30 33 136 11 194 -20 53 -94 128 -175 176 l-61 37 29 40 c35 48 117 114 228 183 46 28 117 83 158 122 67 63 75 74 75 107 -1 64 -24 79 -97 61z m57 -60 c0 -25 -129 -142 -203 -184 -34 -19 -96 -62 -137 -95 -41 -33 -78 -61 -82 -61 -5 0 -8 31 -8 69 0 66 1 70 33 93 17 13 61 39 97 58 36 18 81 44 100 57 19 12 38 23 43 23 5 0 27 13 51 29 39 27 82 42 99 33 4 -2 7 -11 7 -22z m-387 -542 c99 -67 147 -138 147 -218 0 -60 -17 -81 -94 -115 -98 -44 -96 -45 -96 24 0 33 5 72 12 86 9 21 9 31 0 46 -12 19 -18 199 -6 199 3 0 20 -10 37 -22z m-73 -204 c0 -7 -9 -18 -19 -23 -15 -9 -20 -7 -25 12 -3 12 -6 30 -6 40 0 16 2 16 25 1 14 -9 25 -22 25 -30z"/>
<path d="M4853 2460 c-18 -4 -54 -21 -81 -39 -27 -17 -52 -31 -57 -31 -4 0 -22 -10 -39 -23 -17 -13 -56 -36 -86 -51 -82 -42 -137 -77 -180 -113 l-37 -33 -13 48 c-20 71 -37 92 -74 92 -59 0 -65 -12 -75 -150 -5 -69 -13 -141 -18 -160 -8 -28 -5 -48 12 -95 20 -53 21 -69 13 -130 -5 -38 -6 -99 -2 -135 11 -113 44 -167 119 -196 37 -13 54 -14 116 -4 79 12 202 64 234 100 27 30 33 136 11 194 -20 53 -94 128 -175 176 l-61 37 29 40 c35 48 117 114 228 183 46 28 117 83 158 122 67 63 75 74 75 107 -1 64 -24 79 -97 61z m57 -60 c0 -25 -129 -142 -203 -184 -34 -19 -96 -62 -137 -95 -41 -33 -78 -61 -82 -61 -5 0 -8 31 -8 69 0 66 1 70 33 93 17 13 61 39 97 58 36 18 81 44 100 57 19 12 38 23 43 23 5 0 27 13 51 29 39 27 82 42 99 33 4 -2 7 -11 7 -22z m-387 -542 c99 -67 147 -138 147 -218 0 -60 -17 -81 -94 -115 -98 -44 -96 -45 -96 24 0 33 5 72 12 86 9 21 9 31 0 46 -12 19 -18 199 -6 199 3 0 20 -10 37 -22z m-73 -204 c0 -7 -9 -18 -19 -23 -15 -9 -20 -7 -25 12 -3 12 -6 30 -6 40 0 16 2 16 25 1 14 -9 25 -22 25 -30z"/>
<path d="M1540 2287 c0 -10 -22 -20 -67 -31 -87 -21 -198 -64 -212 -80 -16 -19 6 -86 42 -123 32 -34 77 -45 77 -18 0 22 38 38 76 30 27 -5 34 -11 34 -30 0 -26 21 -161 49 -317 20 -109 21 -108 -49 -83 -65 23 -75 20 -88 -24 -18 -58 -15 -94 11 -132 l23 -34 105 3 c57 2 147 7 199 12 89 9 97 12 123 42 34 41 36 87 4 124 -19 22 -34 28 -80 32 -41 3 -58 9 -61 21 -5 18 -29 167 -50 311 l-14 95 25 33 c13 18 43 45 64 59 35 23 39 30 34 52 -11 43 -21 48 -111 55 -48 3 -97 9 -110 12 -17 4 -24 2 -24 -9z m199 -53 c2 -2 -19 -24 -46 -48 -75 -67 -79 -85 -58 -219 9 -62 23 -145 31 -186 8 -40 14 -84 14 -97 0 -38 34 -64 83 -64 75 0 108 -42 69 -90 -16 -20 -32 -23 -133 -31 -63 -4 -135 -8 -161 -8 l-48 -1 0 45 0 45 44 0 c71 0 72 4 37 212 -16 101 -33 206 -36 235 -4 31 -14 58 -26 69 -14 12 -19 31 -19 66 0 44 3 49 28 58 15 6 34 14 42 19 13 9 168 4 179 -5z"/>
<path d="M3824 2253 c-9 -26 -22 -54 -27 -61 -6 -7 -7 -44 -3 -89 l6 -76 -47 7 c-25 3 -48 8 -50 10 -2 1 -15 43 -29 92 -19 67 -33 97 -59 123 -37 38 -61 38 -110 0 -27 -22 -27 -23 -23 -118 4 -80 10 -107 37 -165 17 -39 31 -85 31 -107 0 -49 16 -83 46 -99 17 -9 31 -35 50 -92 38 -115 68 -164 127 -203 59 -40 86 -43 112 -15 10 11 26 22 37 25 14 5 18 15 17 43 0 20 11 69 24 107 70 194 53 395 -51 590 -46 87 -64 93 -88 28z m82 -115 c47 -112 57 -170 52 -299 -4 -96 -10 -128 -37 -198 -17 -47 -31 -94 -31 -105 0 -12 -12 -29 -25 -39 -24 -17 -25 -17 -67 13 -46 33 -69 70 -99 158 -15 44 -19 84 -19 194 0 155 -5 147 78 128 30 -7 49 -7 64 1 19 10 20 17 14 93 -6 83 6 140 29 133 5 -2 24 -37 41 -79z"/>
<path d="M5093 2258 c-26 -50 -37 -155 -22 -195 6 -16 19 -68 30 -116 20 -89 20 -89 -1 -121 -11 -18 -21 -48 -23 -66 -3 -25 -19 -46 -68 -92 -35 -33 -74 -63 -86 -68 -35 -14 -29 -50 15 -91 81 -78 128 -90 150 -40 15 34 89 121 103 121 5 0 25 -18 44 -39 48 -53 90 -71 165 -71 l62 0 -7 38 c-9 54 -40 114 -84 164 -34 38 -41 56 -55 129 -9 47 -16 99 -16 116 0 16 -11 63 -25 103 -14 40 -25 81 -25 89 -1 9 -22 52 -49 96 -58 97 -77 104 -108 43z m94 -103 c16 -27 17 -28 43 -120 13 -44 25 -96 27 -115 2 -19 11 -75 19 -125 14 -80 20 -94 54 -131 38 -42 61 -79 74 -121 6 -20 4 -23 -19 -23 -41 0 -90 28 -131 72 -41 46 -73 52 -108 19 -12 -11 -26 -21 -31 -21 -16 0 5 183 26 216 25 41 24 68 -6 189 -27 110 -31 165 -14 214 l11 32 21 -33 c12 -18 27 -42 34 -53z"/>
<path d="M442 2243 c-41 -153 -43 -133 29 -275 16 -32 35 -83 43 -115 8 -32 26 -98 40 -148 15 -49 31 -121 36 -160 7 -59 13 -73 37 -92 22 -18 35 -22 63 -16 44 8 120 40 120 50 -1 15 -60 240 -101 383 -23 80 -44 160 -47 178 -4 31 -3 32 29 32 19 0 70 6 115 14 44 8 99 12 121 9 48 -6 102 19 153 71 l34 36 -18 34 c-17 33 -19 33 -104 39 -62 5 -136 0 -255 -15 l-169 -22 -41 22 c-61 32 -71 29 -85 -25z m593 -7 c31 -2 24 -26 -18 -60 -35 -28 -46 -31 -105 -32 -37 0 -106 -4 -154 -9 l-88 -8 0 45 0 46 108 15 c59 8 136 12 172 9 36 -3 74 -5 85 -6z m-345 -463 c0 -12 9 -45 20 -73 18 -45 53 -191 47 -195 -5 -5 -71 -25 -78 -25 -5 0 -9 78 -9 173 0 115 4 167 10 157 5 -8 10 -25 10 -37z"/>
<path d="M2100 2284 c-81 -30 -92 -38 -85 -63 10 -45 37 -235 37 -266 0 -16 -1 -46 -2 -66 -1 -19 8 -66 20 -105 12 -39 24 -110 27 -164 3 -52 10 -103 14 -112 12 -22 126 -78 160 -78 77 0 279 73 279 100 0 6 14 25 30 42 23 22 30 39 30 67 0 39 -33 100 -72 133 -20 18 -20 18 16 60 70 82 70 173 0 291 -83 137 -113 153 -304 161 -74 3 -142 3 -150 0z m310 -66 c76 -38 150 -162 150 -250 0 -55 -15 -91 -54 -127 -29 -27 -35 -75 -11 -84 22 -9 75 -87 75 -113 0 -33 -70 -101 -136 -131 -37 -17 -82 -28 -126 -31 l-68 -5 0 62 0 63 29 -7 c77 -17 161 31 161 91 0 46 -22 98 -51 118 -13 9 -49 21 -81 27 l-58 12 0 36 0 37 86 -9 c105 -11 116 -4 116 72 0 40 -6 61 -31 100 -41 63 -73 84 -128 83 l-43 0 0 39 0 39 63 0 c45 0 75 -6 107 -22z m-73 -116 c34 -27 63 -84 63 -124 l0 -37 -57 6 c-101 9 -120 28 -122 116 -1 30 3 39 22 47 35 14 70 11 94 -8z m-2 -326 c41 -17 68 -83 45 -111 -15 -18 -90 -40 -100 -28 -4 4 -10 41 -14 81 -6 68 -5 72 14 72 11 0 36 -6 55 -14z"/>
<path d="M1293 1210 c-74 -11 -173 -93 -215 -179 -20 -39 -23 -64 -25 -161 0 -63 -7 -136 -14 -161 -12 -45 -11 -50 40 -185 41 -108 65 -153 106 -207 30 -38 62 -91 72 -119 21 -60 50 -78 88 -58 20 11 31 10 67 -4 24 -9 53 -16 65 -16 12 0 25 -4 28 -10 11 -17 39 -11 103 21 153 76 245 212 270 397 29 211 -173 511 -434 646 -68 35 -101 43 -151 36z m209 -122 c91 -59 189 -159 242 -246 51 -84 96 -211 96 -271 0 -79 -40 -198 -88 -263 -43 -58 -129 -130 -178 -148 -28 -11 -118 1 -153 20 -11 5 -31 10 -45 10 l-26 0 0 175 c0 96 2 175 4 175 3 0 28 -32 57 -70 46 -62 56 -70 85 -70 68 0 144 106 144 201 0 71 -74 212 -157 300 -65 69 -95 83 -121 57 -9 -9 -12 13 -12 100 l0 112 38 -15 c20 -9 72 -39 114 -67z m52 -368 c25 -51 46 -104 46 -119 0 -58 -68 -162 -105 -161 -10 1 -61 65 -108 138 -27 43 -28 45 -22 165 3 67 10 137 16 156 l12 35 58 -61 c36 -40 74 -95 103 -153z"/>
<path d="M608 1197 c-42 -19 -198 -208 -198 -240 0 -5 -15 -29 -32 -55 -18 -26 -37 -55 -43 -66 -16 -31 -29 -20 -39 31 -4 26 -29 95 -54 152 -70 157 -145 225 -163 146 -27 -121 -30 -163 -19 -270 6 -61 16 -127 22 -147 8 -27 8 -45 0 -65 -6 -15 -10 -65 -9 -110 2 -77 4 -84 33 -115 28 -29 34 -45 48 -138 9 -58 19 -119 21 -136 3 -17 20 -45 39 -63 30 -29 39 -33 70 -27 21 4 54 24 81 49 l47 42 -19 115 c-11 63 -19 116 -17 118 1 2 42 -17 90 -42 96 -48 164 -66 250 -66 38 0 56 4 60 14 11 30 -47 134 -107 191 -52 50 -144 105 -176 105 -24 0 -16 15 77 155 68 104 110 193 131 281 11 48 10 55 -12 100 -26 53 -40 60 -81 41z m50 -70 c11 -22 10 -36 -4 -84 -21 -73 -46 -130 -82 -185 -108 -163 -132 -205 -132 -229 0 -32 7 -37 73 -61 79 -28 149 -90 195 -172 l22 -41 -25 -3 c-46 -6 -127 18 -219 63 -95 48 -126 54 -146 31 -13 -16 -8 -79 12 -179 12 -59 6 -86 -20 -95 -9 -3 -12 68 -12 287 l0 290 30 33 c17 18 30 36 30 40 0 4 16 30 35 57 19 26 35 52 35 57 0 33 162 228 184 221 6 -2 17 -15 24 -30z"/>
<path d="M2165 1173 c-9 -21 -24 -47 -35 -58 -17 -19 -17 -26 -5 -100 7 -44 16 -114 19 -155 4 -41 14 -107 22 -147 8 -40 14 -89 14 -109 0 -20 8 -51 19 -68 10 -18 21 -60 24 -98 7 -77 16 -99 61 -146 61 -66 125 -79 203 -41 43 21 43 21 43 74 0 30 -4 65 -10 79 -7 20 -3 45 21 113 17 49 34 91 38 96 4 4 12 -14 19 -40 39 -165 53 -241 51 -272 -3 -59 -1 -63 61 -131 33 -36 60 -71 60 -78 0 -8 9 -12 21 -10 16 2 26 18 42 63 18 52 21 92 24 310 4 207 1 262 -12 320 -19 81 -88 229 -140 298 l-35 47 -64 0 c-62 0 -64 -1 -89 -37 -14 -21 -38 -65 -52 -98 -14 -33 -36 -79 -48 -103 l-22 -43 -22 50 c-21 46 -53 179 -53 218 0 10 -21 32 -50 51 -28 17 -50 37 -50 42 0 6 -9 10 -20 10 -13 0 -25 -12 -35 -37z m528 -160 c61 -93 83 -141 107 -237 18 -74 20 -106 17 -317 -3 -147 -9 -248 -16 -273 l-13 -39 -46 54 c-45 50 -47 56 -53 128 -9 101 -56 295 -79 323 -16 20 -20 21 -43 9 -19 -10 -34 -38 -62 -117 -34 -96 -36 -108 -26 -149 22 -87 9 -115 -53 -115 l-26 0 0 259 c0 210 3 260 14 264 16 6 59 82 76 133 32 96 72 144 121 144 35 0 40 -4 82 -67z"/>
<path d="M3353 1170 c-74 -11 -173 -93 -215 -179 -20 -39 -23 -64 -25 -161 0 -63 -7 -136 -14 -161 -12 -45 -11 -50 40 -185 41 -108 65 -153 106 -207 30 -38 62 -91 72 -119 21 -60 50 -78 88 -58 20 11 31 10 67 -4 24 -9 53 -16 65 -16 12 0 25 -4 28 -10 11 -17 39 -11 103 21 153 76 245 212 270 397 29 211 -173 511 -434 646 -68 35 -101 43 -151 36z m209 -122 c91 -59 189 -159 242 -246 51 -84 96 -211 96 -271 0 -79 -40 -198 -88 -263 -43 -58 -129 -130 -178 -148 -28 -11 -118 1 -153 20 -11 5 -31 10 -45 10 l-26 0 0 175 c0 96 2 175 4 175 3 0 28 -32 57 -70 46 -62 56 -70 85 -70 68 0 144 106 144 201 0 71 -74 212 -157 300 -65 69 -95 83 -121 57 -9 -9 -12 13 -12 100 l0 112 38 -15 c20 -9 72 -39 114 -67z m52 -368 c25 -51 46 -104 46 -119 0 -58 -68 -162 -105 -161 -10 1 -61 65 -108 138 -27 43 -28 45 -22 165 3 67 10 137 16 156 l12 35 58 -61 c36 -40 74 -95 103 -153z"/>
<path d="M4676 1112 c-9 -32 -16 -86 -16 -121 0 -34 -7 -91 -16 -126 l-16 -63 -77 -17 c-42 -10 -90 -23 -107 -30 l-32 -13 -17 96 c-13 68 -30 122 -62 186 -51 105 -57 113 -100 122 -30 6 -32 4 -42 -32 -31 -121 -39 -232 -21 -294 6 -19 28 -147 50 -285 67 -433 58 -395 104 -437 48 -44 91 -49 142 -17 29 17 34 26 34 57 0 37 -34 263 -50 335 l-8 38 46 21 c51 22 144 47 178 48 28 0 33 -25 44 -199 7 -115 6 -137 -9 -162 -15 -27 -15 -31 8 -75 42 -79 99 -96 181 -54 l42 22 -6 221 c-4 122 -7 231 -7 242 0 11 3 41 6 67 6 38 1 66 -25 150 -58 185 -101 288 -142 341 -43 54 -62 49 -82 -21z m94 -87 c17 -35 30 -70 30 -77 0 -8 6 -22 14 -33 7 -11 17 -36 20 -55 4 -19 19 -68 33 -108 24 -67 25 -78 15 -120 -9 -34 -10 -68 -2 -122 5 -41 10 -141 10 -222 0 -141 -1 -148 -22 -162 -45 -32 -94 -17 -122 38 -13 25 -13 32 -1 49 24 34 1 358 -28 395 -18 23 -164 6 -225 -27 -38 -20 -42 -14 -42 59 0 81 -2 80 125 106 39 9 74 20 80 25 19 19 36 97 44 200 12 153 21 160 71 54z"/>
<path d="M5756 1148 c-9 -12 -16 -26 -16 -31 0 -4 -12 -33 -26 -62 -26 -53 -27 -56 -16 -141 7 -48 10 -89 8 -91 -2 -2 -33 1 -69 8 l-65 12 -32 118 c-30 106 -37 122 -75 159 -50 49 -71 48 -135 -7 l-41 -36 7 -106 c7 -112 19 -160 64 -254 21 -42 27 -67 23 -91 -8 -51 22 -120 61 -141 28 -15 37 -32 71 -129 57 -162 84 -202 176 -264 70 -46 79 -49 91 -35 7 9 33 29 58 45 44 28 45 30 46 81 0 31 13 86 31 137 59 163 68 353 24 524 -31 116 -134 326 -161 326 -5 0 -16 -10 -24 -22z m83 -149 c106 -230 117 -445 34 -674 -20 -55 -36 -116 -36 -135 0 -29 -6 -39 -38 -63 l-39 -27 -55 36 c-63 42 -101 98 -133 193 -20 58 -22 86 -22 269 l0 205 38 -7 c20 -4 63 -10 94 -13 72 -7 75 -2 59 124 -10 81 -9 96 4 109 8 9 15 19 15 24 0 5 5 21 10 36 11 27 11 27 25 7 8 -11 27 -49 44 -84z"/>
</g>
<g id="layer106" fill="#f4daa5" stroke="none">
<path d="M3453 2460 c-18 -4 -54 -21 -81 -39 -27 -17 -52 -31 -57 -31 -4 0 -22 -10 -39 -23 -17 -13 -56 -36 -86 -51 -82 -42 -137 -77 -180 -113 l-37 -33 -13 48 c-20 71 -37 92 -74 92 -59 0 -65 -12 -75 -150 -5 -69 -13 -141 -18 -160 -8 -28 -5 -48 12 -95 20 -53 21 -69 13 -130 -5 -38 -6 -99 -2 -135 11 -113 44 -167 119 -196 37 -13 54 -14 116 -4 79 12 202 64 234 100 27 30 33 136 11 194 -20 53 -94 128 -175 176 l-61 37 29 40 c35 48 117 114 228 183 46 28 117 83 158 122 67 63 75 74 75 107 -1 64 -24 79 -97 61z m57 -60 c0 -25 -129 -142 -204 -184 -82 -46 -224 -162 -258 -211 -42 -60 -35 -81 42 -127 125 -76 180 -148 180 -238 0 -55 -14 -76 -71 -106 -108 -55 -235 -71 -282 -34 -47 37 -60 95 -54 233 4 105 2 131 -16 185 -17 54 -18 66 -7 90 7 15 16 79 19 142 5 97 9 115 23 118 13 3 21 -11 35 -59 11 -38 27 -67 40 -76 20 -14 25 -12 66 26 24 23 48 41 52 41 5 0 22 10 39 23 17 12 60 38 96 57 36 18 81 44 100 57 19 12 38 23 43 23 5 0 27 13 51 29 39 27 82 42 99 33 4 -2 7 -11 7 -22z"/>
<path d="M2963 1724 c-9 -25 5 -116 21 -132 21 -21 73 -5 99 30 17 23 19 31 9 53 -23 49 -115 85 -129 49z m87 -70 c0 -7 -9 -18 -19 -23 -15 -9 -20 -7 -25 12 -3 12 -6 30 -6 40 0 16 2 16 25 1 14 -9 25 -22 25 -30z"/>
<path d="M4853 2460 c-18 -4 -54 -21 -81 -39 -27 -17 -52 -31 -57 -31 -4 0 -22 -10 -39 -23 -17 -13 -56 -36 -86 -51 -82 -42 -137 -77 -180 -113 l-37 -33 -13 48 c-20 71 -37 92 -74 92 -59 0 -65 -12 -75 -150 -5 -69 -13 -141 -18 -160 -8 -28 -5 -48 12 -95 20 -53 21 -69 13 -130 -5 -38 -6 -99 -2 -135 11 -113 44 -167 119 -196 37 -13 54 -14 116 -4 79 12 202 64 234 100 27 30 33 136 11 194 -20 53 -94 128 -175 176 l-61 37 29 40 c35 48 117 114 228 183 46 28 117 83 158 122 67 63 75 74 75 107 -1 64 -24 79 -97 61z m57 -60 c0 -25 -129 -142 -204 -184 -82 -46 -224 -162 -258 -211 -42 -60 -35 -81 42 -127 125 -76 180 -148 180 -238 0 -55 -14 -76 -71 -106 -108 -55 -235 -71 -282 -34 -47 37 -60 95 -54 233 4 105 2 131 -16 185 -17 54 -18 66 -7 90 7 15 16 79 19 142 5 97 9 115 23 118 13 3 21 -11 35 -59 11 -38 27 -67 40 -76 20 -14 25 -12 66 26 24 23 48 41 52 41 5 0 22 10 39 23 17 12 60 38 96 57 36 18 81 44 100 57 19 12 38 23 43 23 5 0 27 13 51 29 39 27 82 42 99 33 4 -2 7 -11 7 -22z"/>
<path d="M4363 1724 c-9 -25 5 -116 21 -132 21 -21 73 -5 99 30 17 23 19 31 9 53 -23 49 -115 85 -129 49z m87 -70 c0 -7 -9 -18 -19 -23 -15 -9 -20 -7 -25 12 -3 12 -6 30 -6 40 0 16 2 16 25 1 14 -9 25 -22 25 -30z"/>
<path d="M1540 2287 c0 -10 -22 -20 -67 -31 -87 -21 -198 -64 -212 -80 -16 -19 6 -86 42 -123 32 -34 77 -45 77 -18 0 22 38 38 76 30 27 -5 34 -11 34 -30 0 -26 21 -161 49 -317 20 -109 21 -108 -49 -83 -65 23 -75 20 -88 -24 -18 -58 -15 -94 11 -132 l23 -34 105 3 c57 2 147 7 199 12 89 9 97 12 123 42 34 41 36 87 4 124 -19 22 -34 28 -80 32 -41 3 -58 9 -61 21 -5 18 -29 167 -50 311 l-14 95 25 33 c13 18 43 45 64 59 35 23 39 30 34 52 -11 43 -21 48 -111 55 -48 3 -97 9 -110 12 -17 4 -24 2 -24 -9z m199 -53 c2 -2 -19 -24 -46 -48 -75 -67 -79 -85 -58 -219 9 -62 23 -145 31 -186 8 -40 14 -84 14 -97 0 -38 34 -64 83 -64 75 0 108 -42 69 -90 -16 -20 -31 -23 -152 -31 -74 -5 -154 -11 -177 -13 -47 -6 -61 5 -69 56 -7 49 6 63 46 49 45 -15 95 -14 110 3 9 12 5 54 -19 198 -16 101 -33 207 -36 236 -9 68 -33 87 -105 80 -28 -3 -58 -13 -68 -22 -18 -15 -20 -15 -35 1 -8 10 -18 29 -22 43 -5 24 -1 26 72 52 43 14 102 32 131 38 28 7 55 16 58 21 5 8 163 2 173 -7z"/>
<path d="M3824 2253 c-9 -26 -22 -54 -27 -61 -6 -7 -7 -44 -3 -89 l6 -76 -47 7 c-25 3 -48 8 -50 10 -2 1 -15 43 -29 92 -19 67 -33 97 -59 123 -37 38 -61 38 -110 0 -27 -22 -27 -23 -23 -118 4 -80 10 -107 37 -165 17 -39 31 -85 31 -107 0 -49 16 -83 46 -99 17 -9 31 -35 50 -92 38 -115 68 -164 127 -203 59 -40 86 -43 112 -15 10 11 26 22 37 25 14 5 18 15 17 43 0 20 11 69 24 107 70 194 53 395 -51 590 -46 87 -64 93 -88 28z m-230 -32 c9 -10 27 -58 41 -106 13 -49 30 -94 37 -100 21 -20 126 -37 150 -24 19 10 20 17 14 93 -6 83 6 140 29 133 14 -5 70 -143 85 -209 8 -35 11 -97 8 -169 -4 -96 -10 -128 -37 -198 -17 -47 -31 -94 -31 -105 0 -12 -12 -29 -25 -39 -24 -17 -25 -17 -67 13 -50 36 -67 66 -104 175 -20 61 -35 89 -65 117 -35 33 -39 42 -39 86 0 26 -4 52 -8 57 -22 24 -51 127 -57 197 -6 67 -4 77 12 87 26 15 38 13 57 -8z"/>
<path d="M3737 1893 c-12 -11 -7 -63 8 -93 21 -40 71 -43 85 -4 14 35 13 77 -2 92 -13 13 -80 17 -91 5z m63 -45 c0 -17 -20 -47 -20 -31 0 6 -3 18 -6 27 -4 11 -1 16 10 16 9 0 16 -6 16 -12z"/>
<path d="M5093 2258 c-26 -50 -37 -155 -22 -195 6 -16 19 -68 30 -116 20 -89 20 -89 -1 -121 -11 -18 -21 -48 -23 -66 -3 -25 -19 -46 -68 -92 -35 -33 -74 -63 -86 -68 -35 -14 -29 -50 15 -91 81 -78 128 -90 150 -40 15 34 89 121 103 121 5 0 25 -18 44 -39 48 -53 90 -71 165 -71 l62 0 -7 38 c-9 54 -40 114 -84 164 -34 38 -41 56 -55 129 -9 47 -16 99 -16 116 0 16 -11 63 -25 103 -14 40 -25 81 -25 89 -1 9 -22 52 -49 96 -58 97 -77 104 -108 43z m94 -103 c16 -27 17 -28 43 -120 13 -44 25 -96 27 -115 2 -19 11 -75 19 -125 14 -80 20 -94 54 -131 38 -42 61 -79 74 -121 6 -20 4 -23 -19 -23 -41 0 -90 28 -131 72 -24 27 -45 41 -61 41 -29 0 -84 -49 -123 -110 -26 -41 -27 -42 -51 -26 -13 9 -34 25 -46 36 l-23 20 85 81 c70 66 85 86 85 111 0 17 9 44 20 60 26 39 25 69 -5 190 -27 106 -32 193 -14 227 12 22 8 26 66 -67z"/>
<path d="M442 2243 c-41 -153 -43 -133 29 -275 16 -32 35 -83 43 -115 8 -32 26 -98 40 -148 15 -49 31 -121 36 -160 7 -59 13 -73 37 -92 22 -18 35 -22 63 -16 44 8 120 40 120 50 -1 15 -60 240 -101 383 -23 80 -44 160 -47 178 -4 31 -3 32 29 32 19 0 70 6 115 14 44 8 99 12 121 9 48 -6 102 19 153 71 l34 36 -18 34 c-17 33 -19 33 -104 39 -62 5 -136 0 -255 -15 l-169 -22 -41 22 c-61 32 -71 29 -85 -25z m593 -7 c33 -2 23 -28 -24 -64 -37 -28 -50 -32 -80 -27 -20 3 -92 -1 -161 -10 -167 -21 -178 -34 -135 -160 8 -22 27 -92 44 -155 16 -63 34 -128 40 -143 12 -31 42 -169 38 -173 -1 -2 -24 -9 -50 -16 -59 -15 -67 -8 -72 64 -3 30 -20 106 -38 169 -19 63 -40 136 -46 162 -6 26 -28 80 -47 118 -45 87 -52 133 -29 192 l17 44 33 -17 c31 -16 41 -15 196 6 103 14 188 20 229 16 36 -3 74 -5 85 -6z"/>
<path d="M2100 2284 c-81 -30 -92 -38 -85 -63 10 -45 37 -235 37 -266 0 -16 -1 -46 -2 -66 -1 -19 8 -66 20 -105 12 -39 24 -110 27 -164 3 -52 10 -103 14 -112 12 -22 126 -78 160 -78 77 0 279 73 279 100 0 6 14 25 30 42 23 22 30 39 30 67 0 39 -33 100 -72 133 -20 18 -20 18 16 60 70 82 70 173 0 291 -83 137 -113 153 -304 161 -74 3 -142 3 -150 0z m310 -67 c75 -37 150 -161 150 -249 0 -55 -15 -91 -54 -127 -29 -27 -35 -75 -11 -84 22 -9 75 -87 75 -113 0 -13 -17 -40 -40 -64 -92 -96 -274 -131 -353 -67 -25 20 -28 30 -36 120 -5 54 -20 132 -32 173 -19 64 -21 81 -10 109 8 23 8 40 1 60 -6 15 -15 66 -20 114 -5 47 -12 96 -16 108 -5 19 -1 26 27 38 52 24 258 12 319 -18z"/>
<path d="M2248 2158 c-70 -18 -88 -70 -59 -174 14 -52 47 -69 152 -79 90 -8 101 0 101 75 0 39 -7 60 -31 99 -48 75 -93 97 -163 79z m89 -56 c34 -27 63 -84 63 -124 l0 -37 -57 6 c-101 9 -120 28 -122 116 -1 30 3 39 22 47 35 14 70 11 94 -8z"/>
<path d="M2241 1829 c-23 -9 -23 -11 -16 -102 8 -101 15 -122 45 -132 34 -11 99 5 131 33 29 23 31 30 27 73 -3 26 -13 60 -22 74 -27 42 -119 71 -165 54z m94 -53 c41 -17 68 -83 45 -111 -15 -18 -90 -40 -100 -28 -4 4 -10 41 -14 81 -6 68 -5 72 14 72 11 0 36 -6 55 -14z"/>
<path d="M1293 1210 c-74 -11 -173 -93 -215 -179 -20 -39 -23 -64 -25 -161 0 -63 -7 -136 -14 -161 -12 -45 -11 -50 40 -185 41 -108 65 -153 106 -207 30 -38 62 -91 72 -119 21 -60 50 -78 88 -58 20 11 31 10 67 -4 24 -9 53 -16 65 -16 12 0 25 -4 28 -10 11 -17 39 -11 103 21 153 76 245 212 270 397 29 211 -173 511 -434 646 -68 35 -101 43 -151 36z m104 -59 c126 -58 274 -190 347 -310 51 -83 96 -210 96 -270 0 -79 -40 -198 -88 -263 -43 -58 -129 -130 -178 -148 -29 -11 -118 1 -156 21 -12 6 -39 9 -64 5 l-43 -5 -17 45 c-9 25 -41 75 -70 112 -42 52 -63 94 -103 199 -50 132 -50 133 -35 176 11 31 13 62 8 119 -12 135 22 215 127 298 59 47 106 52 176 21z"/>
<path d="M1356 948 c-23 -37 -35 -115 -35 -237 -1 -125 -8 -107 92 -243 44 -60 54 -68 83 -68 68 0 144 106 144 201 0 71 -74 212 -157 300 -71 75 -102 86 -127 47z m198 -228 c25 -51 46 -104 46 -119 0 -58 -68 -162 -105 -161 -10 1 -61 65 -108 138 -27 43 -28 45 -22 165 3 67 10 137 16 156 l12 35 58 -61 c36 -40 74 -95 103 -153z"/>
<path d="M608 1197 c-42 -19 -198 -208 -198 -240 0 -5 -15 -29 -32 -55 -18 -26 -37 -55 -43 -66 -16 -31 -29 -20 -39 31 -4 26 -29 95 -54 152 -70 157 -145 225 -163 146 -27 -121 -30 -163 -19 -270 6 -61 16 -127 22 -147 8 -27 8 -45 0 -65 -6 -15 -10 -65 -9 -110 2 -77 4 -84 33 -115 28 -29 34 -45 48 -138 9 -58 19 -119 21 -136 3 -17 20 -45 39 -63 30 -29 39 -33 70 -27 21 4 54 24 81 49 l47 42 -19 115 c-11 63 -19 116 -17 118 1 2 42 -17 90 -42 96 -48 164 -66 250 -66 38 0 56 4 60 14 11 30 -47 134 -107 191 -52 50 -144 105 -176 105 -24 0 -16 15 77 155 68 104 110 193 131 281 11 48 10 55 -12 100 -26 53 -40 60 -81 41z m50 -70 c11 -22 10 -36 -4 -84 -21 -73 -46 -130 -82 -185 -108 -163 -132 -205 -132 -229 0 -32 7 -37 73 -61 79 -28 149 -90 195 -172 l22 -41 -25 -3 c-46 -6 -127 18 -219 63 -152 76 -165 66 -140 -99 19 -130 17 -137 -49 -170 -30 -14 -33 -14 -54 6 -13 12 -25 35 -27 52 -38 245 -36 240 -70 276 -27 29 -31 40 -26 65 3 17 2 43 -3 58 -6 19 -6 37 2 53 14 31 14 81 1 120 -5 16 -14 73 -19 127 -9 88 -4 156 15 226 12 41 125 -183 138 -275 8 -55 29 -94 50 -94 17 0 76 48 76 61 0 5 16 31 35 58 19 26 35 52 35 57 0 33 162 228 184 221 6 -2 17 -15 24 -30z"/>
<path d="M2165 1173 c-9 -21 -24 -47 -35 -58 -17 -19 -17 -26 -5 -100 7 -44 16 -114 19 -155 4 -41 14 -107 22 -147 8 -40 14 -89 14 -109 0 -20 8 -51 19 -68 10 -18 21 -60 24 -98 7 -77 16 -99 61 -146 61 -66 125 -79 203 -41 43 21 43 21 43 74 0 30 -4 65 -10 79 -7 20 -3 45 21 113 17 49 34 91 38 96 4 4 12 -14 19 -40 39 -165 53 -241 51 -272 -3 -59 -1 -63 61 -131 33 -36 60 -71 60 -78 0 -8 9 -12 21 -10 16 2 26 18 42 63 18 52 21 92 24 310 4 207 1 262 -12 320 -19 81 -88 229 -140 298 l-35 47 -64 0 c-62 0 -64 -1 -89 -37 -14 -21 -38 -65 -52 -98 -14 -33 -36 -79 -48 -103 l-22 -43 -22 50 c-21 46 -53 179 -53 218 0 10 -21 32 -50 51 -28 17 -50 37 -50 42 0 6 -9 10 -20 10 -13 0 -25 -12 -35 -37z m75 -48 c31 -23 36 -34 57 -127 12 -56 33 -122 45 -147 20 -39 27 -46 52 -46 25 0 34 8 56 46 15 25 33 63 40 84 32 97 72 145 121 145 35 0 40 -4 82 -67 61 -93 83 -141 107 -237 18 -74 20 -106 17 -317 -3 -147 -9 -248 -16 -273 l-13 -39 -46 54 c-45 50 -47 56 -53 128 -9 101 -56 295 -79 323 -16 20 -20 21 -43 9 -19 -10 -34 -38 -62 -117 -34 -96 -36 -108 -26 -149 23 -93 7 -118 -77 -118 -33 0 -49 6 -73 29 -44 42 -57 72 -65 150 -4 38 -13 78 -19 89 -13 20 -48 224 -60 340 -3 33 -11 89 -17 125 -10 61 -9 67 13 102 13 20 24 37 25 38 0 0 15 -11 34 -25z"/>
<path d="M3353 1170 c-74 -11 -173 -93 -215 -179 -20 -39 -23 -64 -25 -161 0 -63 -7 -136 -14 -161 -12 -45 -11 -50 40 -185 41 -108 65 -153 106 -207 30 -38 62 -91 72 -119 21 -60 50 -78 88 -58 20 11 31 10 67 -4 24 -9 53 -16 65 -16 12 0 25 -4 28 -10 11 -17 39 -11 103 21 153 76 245 212 270 397 29 211 -173 511 -434 646 -68 35 -101 43 -151 36z m104 -59 c126 -58 274 -190 347 -310 51 -83 96 -210 96 -270 0 -79 -40 -198 -88 -263 -43 -58 -129 -130 -178 -148 -29 -11 -118 1 -156 21 -12 6 -39 9 -64 5 l-43 -5 -17 45 c-9 25 -41 75 -70 112 -42 52 -63 94 -103 199 -50 132 -50 133 -35 176 11 31 13 62 8 119 -12 135 22 215 127 298 59 47 106 52 176 21z"/>
<path d="M3416 908 c-23 -37 -35 -115 -35 -237 -1 -125 -8 -107 92 -243 44 -60 54 -68 83 -68 68 0 144 106 144 201 0 71 -74 212 -157 300 -71 75 -102 86 -127 47z m198 -228 c25 -51 46 -104 46 -119 0 -58 -68 -162 -105 -161 -10 1 -61 65 -108 138 -27 43 -28 45 -22 165 3 67 10 137 16 156 l12 35 58 -61 c36 -40 74 -95 103 -153z"/>
<path d="M4676 1112 c-9 -32 -16 -86 -16 -121 0 -34 -7 -91 -16 -126 l-16 -63 -77 -17 c-42 -10 -90 -23 -107 -30 l-32 -13 -17 96 c-13 68 -30 122 -62 186 -51 105 -57 113 -100 122 -30 6 -32 4 -42 -32 -31 -121 -39 -232 -21 -294 6 -19 28 -147 50 -285 67 -433 58 -395 104 -437 48 -44 91 -49 142 -17 29 17 34 26 34 57 0 37 -34 263 -50 335 l-8 38 46 21 c51 22 144 47 178 48 28 0 33 -25 44 -199 7 -115 6 -137 -9 -162 -15 -27 -15 -31 8 -75 42 -79 99 -96 181 -54 l42 22 -6 221 c-4 122 -7 231 -7 242 0 11 3 41 6 67 6 38 1 66 -25 150 -58 185 -101 288 -142 341 -43 54 -62 49 -82 -21z m-386 -98 c41 -87 63 -161 75 -246 9 -69 26 -75 126 -43 44 14 90 25 102 25 12 0 33 6 46 13 31 16 61 115 62 212 1 78 9 116 24 117 11 1 74 -119 75 -142 0 -9 6 -24 14 -35 7 -11 17 -36 20 -55 4 -19 19 -68 33 -108 24 -67 25 -78 15 -120 -9 -34 -10 -68 -2 -122 5 -41 10 -141 10 -222 0 -141 -1 -148 -22 -162 -45 -32 -94 -17 -122 38 -13 25 -13 32 -1 49 24 34 1 358 -28 395 -29 37 -278 -24 -306 -75 -7 -14 -1 -69 20 -194 35 -214 35 -213 4 -227 -38 -18 -48 -15 -82 21 -35 37 -43 75 -94 422 -16 116 -36 235 -44 265 -19 74 0 280 27 280 5 0 27 -39 48 -86z"/>
<path d="M5756 1148 c-9 -12 -16 -26 -16 -31 0 -4 -12 -33 -26 -62 -26 -53 -27 -56 -16 -141 7 -48 10 -89 8 -91 -2 -2 -33 1 -69 8 l-65 12 -32 118 c-30 106 -37 122 -75 159 -50 49 -71 48 -135 -7 l-41 -36 7 -106 c7 -112 19 -160 64 -254 21 -42 27 -67 23 -91 -8 -51 22 -120 61 -141 28 -15 37 -32 71 -129 57 -162 84 -202 176 -264 70 -46 79 -49 91 -35 7 9 33 29 58 45 44 28 45 30 46 81 0 31 13 86 31 137 59 163 68 353 24 524 -31 116 -134 326 -161 326 -5 0 -16 -10 -24 -22z m-313 -66 c18 -19 36 -62 60 -147 l35 -120 38 -13 c22 -7 67 -16 101 -19 78 -7 80 -4 64 124 -9 79 -9 96 3 108 8 8 17 28 21 45 4 16 10 32 15 35 5 3 27 -32 49 -77 116 -240 130 -456 44 -693 -20 -55 -36 -116 -36 -135 0 -29 -6 -39 -38 -63 l-39 -27 -55 36 c-70 47 -101 98 -149 242 -35 103 -41 115 -76 138 -43 29 -59 62 -53 114 3 25 -7 61 -37 129 -35 80 -42 109 -49 195 l-9 101 29 28 c37 34 49 34 82 -1z"/>
<path d="M5635 626 c-19 -13 -19 -16 -2 -68 19 -62 54 -91 81 -68 17 13 36 71 36 106 0 38 -77 58 -115 30z m62 -34 c9 -5 10 -17 4 -37 l-8 -30 -12 29 c-6 16 -14 33 -17 37 -6 11 17 11 33 1z"/>
</g>
<g id="layer107" fill="#fbf9f8" stroke="none">
<path d="M3453 2460 c-18 -4 -54 -21 -81 -39 -27 -17 -52 -31 -57 -31 -4 0 -22 -10 -39 -23 -17 -13 -56 -36 -86 -51 -82 -42 -137 -77 -180 -113 l-37 -33 -13 48 c-20 71 -37 92 -74 92 -62 0 -69 -13 -68 -140 1 -62 -2 -118 -6 -124 -4 -6 -12 -27 -18 -46 -9 -30 -6 -43 14 -89 24 -52 24 -56 12 -141 -23 -163 15 -276 110 -320 46 -22 54 -22 107 -11 154 34 244 77 263 127 16 41 11 135 -9 179 -23 51 -94 119 -171 166 l-60 36 29 40 c35 48 117 114 228 183 46 28 117 83 158 122 67 63 75 74 75 107 -1 64 -24 79 -97 61z m57 -58 c0 -24 -131 -154 -174 -173 -30 -13 -55 -29 -105 -68 -24 -19 -65 -51 -92 -71 -57 -42 -119 -120 -119 -149 0 -14 17 -29 58 -51 130 -69 192 -150 192 -251 0 -58 -4 -67 -35 -87 -67 -43 -133 -66 -202 -70 -96 -6 -126 7 -155 66 -23 48 -28 122 -19 267 3 46 -1 71 -17 108 -20 45 -20 51 -7 84 8 20 15 66 15 103 0 111 10 160 32 160 19 0 25 -11 49 -90 18 -59 48 -65 92 -20 28 28 168 118 222 141 11 5 29 15 40 21 163 104 225 126 225 80z"/>
<path d="M2963 1724 c-10 -27 7 -108 27 -129 20 -20 20 -20 58 0 62 34 53 93 -20 131 -35 18 -57 18 -65 -2z m87 -70 c0 -7 -9 -18 -19 -23 -15 -9 -20 -7 -25 12 -3 12 -6 30 -6 40 0 16 2 16 25 1 14 -9 25 -22 25 -30z"/>
<path d="M4853 2460 c-18 -4 -54 -21 -81 -39 -27 -17 -52 -31 -57 -31 -4 0 -22 -10 -39 -23 -17 -13 -56 -36 -86 -51 -82 -42 -137 -77 -180 -113 l-37 -33 -13 48 c-20 71 -37 92 -74 92 -62 0 -69 -13 -68 -140 1 -62 -2 -118 -6 -124 -4 -6 -12 -27 -18 -46 -9 -30 -6 -43 14 -89 24 -52 24 -56 12 -141 -23 -163 15 -276 110 -320 46 -22 54 -22 107 -11 154 34 244 77 263 127 16 41 11 135 -9 179 -23 51 -94 119 -171 166 l-60 36 29 40 c35 48 117 114 228 183 46 28 117 83 158 122 67 63 75 74 75 107 -1 64 -24 79 -97 61z m57 -58 c0 -24 -131 -154 -174 -173 -30 -13 -55 -29 -105 -68 -24 -19 -65 -51 -92 -71 -57 -42 -119 -120 -119 -149 0 -14 17 -29 58 -51 130 -69 192 -150 192 -251 0 -58 -4 -67 -35 -87 -67 -43 -133 -66 -202 -70 -96 -6 -126 7 -155 66 -23 48 -28 122 -19 267 3 46 -1 71 -17 108 -20 45 -20 51 -7 84 8 20 15 66 15 103 0 111 10 160 32 160 19 0 25 -11 49 -90 18 -59 48 -65 92 -20 28 28 168 118 222 141 11 5 29 15 40 21 163 104 225 126 225 80z"/>
<path d="M4363 1724 c-10 -27 7 -108 27 -129 20 -20 20 -20 58 0 62 34 53 93 -20 131 -35 18 -57 18 -65 -2z m87 -70 c0 -7 -9 -18 -19 -23 -15 -9 -20 -7 -25 12 -3 12 -6 30 -6 40 0 16 2 16 25 1 14 -9 25 -22 25 -30z"/>
<path d="M1540 2287 c0 -10 -22 -20 -67 -31 -91 -23 -173 -53 -201 -74 -21 -16 -21 -21 -11 -52 16 -47 42 -83 72 -99 22 -12 27 -10 50 13 18 18 37 26 61 26 40 0 48 -9 52 -59 1 -20 12 -92 24 -161 36 -216 38 -230 25 -230 -7 0 -31 6 -53 14 -57 21 -76 12 -91 -39 -14 -47 -7 -84 25 -133 14 -22 20 -23 77 -17 34 3 98 7 142 10 164 8 194 15 221 50 31 41 31 86 1 121 -19 22 -34 28 -80 32 -41 3 -58 9 -61 21 -5 18 -29 167 -50 311 l-14 95 25 33 c13 18 43 45 64 59 35 23 39 30 34 52 -11 43 -21 48 -111 55 -48 3 -97 9 -110 12 -17 4 -24 2 -24 -9z m207 -56 c0 0 -27 -30 -62 -64 -73 -73 -69 -45 -34 -272 43 -281 41 -275 110 -275 61 0 89 -15 89 -48 0 -58 -46 -72 -296 -86 l-102 -6 -12 30 c-10 25 -7 100 4 100 2 0 23 -7 46 -15 96 -34 114 -14 93 99 -8 39 -23 136 -34 216 -11 80 -22 153 -25 162 -11 38 -125 48 -154 13 -18 -22 -35 -18 -54 10 -29 44 -21 62 39 84 31 12 86 28 123 37 37 9 73 22 79 28 10 9 35 9 100 0 49 -7 89 -12 90 -13z"/>
<path d="M3836 2276 c-9 -14 -16 -31 -16 -38 0 -8 -7 -24 -16 -37 -14 -19 -16 -38 -10 -99 l6 -75 -47 7 c-25 3 -48 8 -50 10 -2 1 -15 43 -29 92 -18 64 -34 98 -57 122 -39 40 -57 40 -102 1 l-36 -32 5 -93 c3 -51 9 -101 14 -111 5 -10 19 -37 31 -59 12 -24 21 -60 21 -86 0 -56 17 -92 50 -106 20 -9 31 -27 49 -84 42 -131 68 -175 124 -213 59 -40 86 -43 112 -15 10 11 26 22 37 25 14 5 18 15 17 43 0 20 11 69 24 107 53 146 55 317 7 460 -25 71 -90 197 -106 202 -6 2 -19 -8 -28 -21z m-242 -45 c9 -10 29 -60 43 -111 31 -109 44 -121 135 -123 l63 -2 -3 92 c-2 55 1 94 8 98 5 3 10 15 10 26 0 46 26 9 74 -103 51 -119 48 -381 -5 -490 -5 -10 -14 -27 -19 -38 -6 -11 -8 -30 -5 -43 5 -17 -1 -26 -25 -40 -30 -18 -31 -18 -75 10 -25 15 -48 37 -51 48 -4 11 -12 27 -19 35 -7 8 -25 53 -40 100 -15 47 -35 91 -44 98 -47 36 -51 43 -51 83 0 24 -13 70 -31 112 -24 54 -33 91 -37 152 -4 78 -3 83 19 99 29 20 32 20 53 -3z"/>
<path d="M3742 1888 c-18 -18 -14 -57 9 -89 21 -31 50 -37 67 -16 18 21 25 86 12 102 -15 18 -71 20 -88 3z m58 -40 c0 -17 -20 -47 -20 -31 0 6 -3 18 -6 27 -4 11 -1 16 10 16 9 0 16 -6 16 -12z"/>
<path d="M5095 2258 c-30 -67 -35 -133 -15 -208 48 -184 48 -183 15 -247 -14 -26 -23 -53 -21 -59 5 -12 -63 -81 -139 -140 -36 -29 -38 -34 -28 -57 17 -37 109 -107 141 -107 20 0 30 7 40 29 17 38 90 121 107 121 8 0 22 -10 32 -23 10 -13 38 -38 62 -55 39 -28 52 -32 109 -32 l64 0 -7 38 c-9 54 -40 114 -84 164 -34 38 -41 56 -55 129 -9 47 -16 99 -16 116 0 16 -11 63 -25 103 -14 40 -25 81 -25 89 -1 9 -22 52 -49 96 -58 97 -78 105 -106 43z m136 -213 c16 -49 29 -106 29 -125 0 -19 5 -54 10 -78 10 -40 18 -92 19 -119 1 -7 16 -30 35 -50 42 -48 86 -118 86 -138 0 -11 -11 -15 -39 -15 -34 0 -47 8 -97 55 -33 31 -68 55 -80 55 -24 0 -107 -78 -130 -122 -8 -15 -18 -28 -23 -28 -10 0 -87 55 -95 68 -3 5 31 40 75 78 81 69 99 94 99 138 0 13 6 29 14 35 24 20 26 68 5 162 -11 51 -23 97 -26 102 -10 16 -3 147 9 167 10 16 15 12 46 -39 19 -31 47 -96 63 -146z"/>
<path d="M455 2263 c-3 -16 -12 -41 -20 -56 -19 -37 -19 -117 0 -153 8 -16 15 -37 15 -46 0 -9 5 -20 10 -23 17 -11 40 -63 60 -138 11 -39 33 -121 49 -182 17 -60 28 -118 25 -128 -8 -26 16 -71 47 -89 26 -15 32 -15 91 3 35 11 67 24 71 28 9 9 -29 164 -94 391 -23 80 -44 160 -47 178 -4 28 -1 32 19 34 47 3 75 6 109 13 19 4 69 8 110 9 87 3 131 20 180 70 l34 36 -18 34 c-17 33 -19 33 -104 39 -62 5 -136 0 -255 -15 l-169 -22 -41 22 c-54 29 -65 28 -72 -5z m583 -24 c12 0 22 -5 22 -12 0 -37 -86 -91 -133 -84 -33 5 -278 -26 -297 -38 -14 -9 -12 -67 4 -117 18 -53 69 -237 106 -378 l27 -105 -26 -12 c-14 -7 -40 -12 -58 -13 -37 0 -53 21 -53 72 0 18 -23 113 -50 211 -43 152 -66 212 -121 319 -13 25 -11 44 9 105 18 56 25 61 56 38 29 -22 83 -19 276 14 30 6 91 7 135 5 44 -3 90 -5 103 -5z"/>
<path d="M2090 2281 c-14 -4 -37 -14 -50 -22 -14 -8 -26 -14 -27 -14 -1 0 3 -18 8 -40 6 -22 12 -71 15 -108 3 -37 12 -86 19 -108 11 -30 12 -46 3 -67 -12 -31 -12 -80 1 -96 21 -25 38 -123 46 -257 1 -30 3 -57 4 -61 2 -16 108 -62 155 -68 37 -5 68 -1 125 16 88 26 161 60 161 75 0 6 14 24 30 41 23 22 30 39 30 67 0 39 -33 100 -72 133 -20 18 -20 18 16 60 70 82 70 173 0 291 -83 137 -113 153 -304 161 -74 3 -146 2 -160 -3z m237 -40 c67 -6 89 -13 118 -35 19 -15 35 -31 35 -37 0 -5 12 -28 27 -52 42 -64 53 -95 53 -149 0 -52 -24 -110 -59 -142 -31 -28 -26 -46 24 -100 55 -60 58 -90 13 -141 -48 -56 -135 -97 -229 -109 -44 -6 -60 -3 -105 19 -58 29 -55 19 -69 174 -4 35 -15 91 -25 125 -21 65 -25 113 -11 135 5 7 3 30 -4 55 -7 22 -16 75 -20 116 -4 41 -11 85 -16 98 -18 46 75 61 268 43z"/>
<path d="M2234 2150 c-51 -20 -63 -68 -42 -158 8 -38 17 -53 36 -62 31 -14 171 -32 184 -24 6 4 16 21 24 39 17 41 3 94 -39 148 -46 60 -105 81 -163 57z m91 -40 c41 -25 85 -106 78 -142 -5 -26 -7 -26 -62 -21 -99 9 -118 28 -120 115 -1 34 3 40 32 52 17 8 34 15 36 15 2 1 18 -8 36 -19z"/>
<path d="M2230 1815 c-14 -17 1 -190 19 -208 16 -16 84 -11 125 8 88 42 63 176 -39 204 -55 15 -90 14 -105 -4z m126 -38 c0 -1 8 -14 17 -29 36 -57 14 -97 -61 -113 -38 -8 -38 -7 -47 89 l-6 68 48 -7 c26 -4 48 -8 49 -8z"/>
<path d="M1295 1210 c-65 -9 -139 -63 -193 -140 -38 -54 -54 -129 -50 -237 1 -45 -4 -98 -12 -124 -12 -41 -12 -50 3 -82 9 -19 17 -42 17 -50 0 -9 5 -19 10 -22 6 -3 10 -14 10 -23 1 -9 9 -35 20 -57 11 -22 20 -47 20 -55 0 -8 16 -35 35 -60 70 -91 95 -129 95 -144 0 -8 5 -18 10 -21 6 -3 10 -15 10 -26 0 -28 45 -47 71 -31 21 13 85 7 95 -9 3 -5 18 -9 34 -9 16 0 32 -4 35 -10 11 -17 39 -11 103 21 153 76 245 212 270 397 12 85 -10 168 -76 297 -69 135 -210 272 -358 349 -68 35 -101 43 -149 36z m100 -55 c139 -69 285 -191 335 -283 9 -15 23 -38 33 -52 9 -14 32 -73 51 -130 31 -95 33 -111 25 -165 -19 -133 -84 -249 -177 -316 -86 -61 -115 -66 -215 -39 -69 18 -88 20 -107 10 -26 -14 -31 -9 -54 49 -10 25 -39 73 -66 107 -38 46 -62 93 -100 195 -49 128 -51 136 -39 174 8 24 12 81 10 140 -3 110 11 164 54 222 33 43 86 82 132 99 52 18 61 17 118 -11z"/>
<path d="M1361 946 c-21 -22 -24 -40 -33 -178 l-10 -154 39 -60 c108 -167 142 -185 211 -110 22 24 44 52 50 63 17 32 26 122 14 146 -5 12 -22 46 -36 75 -46 99 -167 242 -204 242 -5 0 -19 -11 -31 -24z m184 -206 c64 -122 66 -130 39 -197 -23 -56 -63 -103 -87 -103 -12 1 -60 61 -110 138 -27 43 -28 45 -22 165 3 67 10 137 16 156 l12 35 56 -60 c31 -32 74 -93 96 -134z"/>
<path d="M604 1193 c-32 -19 -124 -114 -124 -129 0 -5 -16 -29 -35 -53 -19 -24 -35 -48 -35 -53 0 -5 -15 -30 -32 -56 -18 -26 -37 -55 -43 -66 -16 -31 -29 -20 -39 31 -12 71 -95 249 -137 295 -55 60 -71 51 -86 -46 -7 -43 -14 -85 -17 -93 -7 -17 10 -182 25 -262 8 -39 8 -65 -1 -95 -7 -26 -8 -50 -2 -66 5 -14 5 -40 0 -64 -8 -37 -7 -42 27 -76 37 -38 37 -39 66 -229 9 -60 17 -80 43 -108 29 -32 35 -34 69 -28 23 5 55 23 83 49 l46 41 -19 115 c-11 63 -19 116 -18 118 4 4 78 -30 95 -44 56 -45 293 -84 306 -51 11 31 -46 134 -107 192 -52 50 -144 105 -176 105 -24 0 -16 15 77 155 68 104 110 193 131 281 11 48 10 55 -12 100 -27 56 -41 62 -85 37z m57 -60 c18 -48 -24 -177 -96 -292 -28 -44 -71 -111 -97 -150 -44 -65 -37 -79 61 -128 101 -50 176 -124 193 -191 6 -20 3 -22 -40 -22 -26 1 -65 8 -87 16 -22 8 -52 19 -68 24 -15 5 -39 18 -53 29 -15 12 -45 26 -67 32 -37 10 -43 9 -58 -9 -14 -18 -14 -29 -3 -104 8 -45 16 -95 20 -111 5 -22 0 -33 -26 -57 -43 -40 -76 -48 -101 -23 -14 14 -25 56 -42 160 -22 129 -26 143 -52 166 -27 23 -29 30 -31 106 -1 45 2 84 7 87 12 7 12 56 0 87 -20 53 -31 249 -18 325 l13 73 21 -23 c24 -27 73 -117 73 -136 0 -7 7 -24 16 -37 9 -13 22 -57 31 -97 8 -40 21 -79 28 -87 21 -22 60 0 84 47 11 21 26 44 35 51 8 7 25 34 37 59 13 26 33 61 46 78 13 17 23 35 23 40 0 15 108 114 125 114 8 0 20 -12 26 -27z"/>
<path d="M2169 1173 c-12 -21 -30 -47 -40 -58 -15 -17 -16 -27 -9 -61 9 -40 12 -57 25 -179 4 -33 15 -109 25 -169 10 -60 16 -115 13 -123 -3 -8 3 -26 14 -41 12 -16 23 -52 27 -89 10 -88 23 -122 65 -166 56 -59 141 -70 214 -29 24 15 27 22 27 69 0 28 -4 63 -10 77 -9 26 6 88 46 181 l17 40 14 -55 c8 -30 18 -71 23 -90 5 -19 14 -55 20 -78 6 -24 11 -63 10 -85 -3 -75 -1 -81 60 -147 33 -36 60 -71 60 -77 0 -7 8 -13 18 -13 13 0 25 18 42 63 22 58 24 77 28 312 3 206 0 262 -13 320 -19 81 -88 229 -140 298 -35 47 -36 47 -93 47 -51 0 -62 -4 -84 -27 -14 -16 -40 -59 -57 -98 -18 -38 -42 -89 -54 -113 l-22 -43 -22 50 c-21 46 -53 179 -53 218 0 10 -21 32 -50 51 -28 17 -50 37 -50 42 0 23 -30 7 -51 -27z m121 -132 c28 -157 79 -259 118 -235 23 15 67 89 87 149 10 28 23 57 30 65 6 8 15 23 18 33 8 23 53 39 87 32 35 -8 116 -144 166 -280 17 -44 19 -82 19 -320 0 -206 -3 -278 -14 -303 -16 -38 -24 -40 -44 -9 -9 13 -29 37 -45 54 -26 26 -30 35 -25 69 3 22 -3 75 -15 124 -11 47 -23 105 -27 129 -9 52 -30 107 -46 116 -25 16 -59 -18 -75 -74 -9 -31 -25 -76 -36 -100 -17 -38 -18 -50 -9 -81 6 -21 11 -55 11 -78 0 -36 -3 -41 -31 -51 -43 -15 -75 -14 -107 3 -62 32 -92 93 -92 191 0 34 -7 58 -20 75 -11 14 -20 40 -20 58 0 18 -6 65 -14 105 -8 40 -17 104 -20 142 -4 39 -12 102 -18 142 -11 68 -10 74 12 116 l24 44 37 -26 c33 -23 39 -33 49 -90z"/>
<path d="M3355 1170 c-65 -9 -139 -63 -193 -140 -38 -54 -54 -129 -50 -237 1 -45 -4 -98 -12 -124 -12 -41 -12 -50 3 -82 9 -19 17 -42 17 -50 0 -9 5 -19 10 -22 6 -3 10 -14 10 -23 1 -9 9 -35 20 -57 11 -22 20 -47 20 -55 0 -8 16 -35 35 -60 70 -91 95 -129 95 -144 0 -8 5 -18 10 -21 6 -3 10 -15 10 -26 0 -28 45 -47 71 -31 21 13 85 7 95 -9 3 -5 18 -9 34 -9 16 0 32 -4 35 -10 11 -17 39 -11 103 21 153 76 245 212 270 397 12 85 -10 168 -76 297 -69 135 -210 272 -358 349 -68 35 -101 43 -149 36z m100 -55 c139 -69 285 -191 335 -283 9 -15 23 -38 33 -52 9 -14 32 -73 51 -130 31 -95 33 -111 25 -165 -19 -133 -84 -249 -177 -316 -86 -61 -115 -66 -215 -39 -69 18 -88 20 -107 10 -26 -14 -31 -9 -54 49 -10 25 -39 73 -66 107 -38 46 -62 93 -100 195 -49 128 -51 136 -39 174 8 24 12 81 10 140 -3 110 11 164 54 222 33 43 86 82 132 99 52 18 61 17 118 -11z"/>
<path d="M3421 906 c-21 -22 -24 -40 -33 -178 l-10 -154 39 -60 c108 -167 142 -185 211 -110 22 24 44 52 50 63 17 32 26 122 14 146 -5 12 -22 46 -36 75 -46 99 -167 242 -204 242 -5 0 -19 -11 -31 -24z m184 -206 c64 -122 66 -130 39 -197 -23 -56 -63 -103 -87 -103 -12 1 -60 61 -110 138 -27 43 -28 45 -22 165 3 67 10 137 16 156 l12 35 56 -60 c31 -32 74 -93 96 -134z"/>
<path d="M4682 1128 c-8 -24 -18 -92 -22 -153 -5 -60 -14 -124 -21 -142 -12 -29 -19 -33 -88 -49 -42 -9 -90 -22 -107 -29 l-32 -13 -17 96 c-12 66 -30 120 -56 173 -22 43 -39 82 -39 87 0 16 -36 42 -66 48 l-30 6 -20 -94 c-24 -109 -24 -175 -2 -278 9 -41 19 -93 22 -115 3 -22 12 -87 20 -145 9 -58 21 -139 26 -180 6 -41 15 -91 20 -110 6 -19 10 -46 10 -59 0 -33 81 -111 116 -111 13 0 43 9 64 20 36 18 40 24 40 58 0 37 -33 262 -50 335 -8 37 -7 38 33 58 49 23 105 39 163 46 l41 5 11 -59 c6 -32 13 -107 16 -166 3 -88 1 -114 -12 -138 -16 -26 -16 -30 2 -61 50 -88 89 -105 167 -74 l54 21 0 190 c0 105 -2 215 -3 245 -2 30 -1 76 3 102 6 39 2 66 -25 150 -58 185 -101 288 -142 341 -39 49 -60 48 -76 -5z m-412 -61 c7 -18 25 -57 40 -87 28 -56 44 -115 56 -203 9 -66 31 -80 93 -60 25 8 78 23 116 32 67 16 71 19 92 62 17 34 25 73 32 167 5 68 11 126 15 129 7 7 36 -16 36 -30 0 -5 14 -39 30 -74 17 -34 30 -69 30 -76 0 -6 7 -21 15 -31 8 -11 15 -34 15 -50 0 -17 6 -43 14 -57 29 -56 41 -127 28 -174 -8 -31 -9 -59 -2 -98 6 -30 9 -130 8 -223 l-3 -169 -35 -11 c-45 -15 -81 2 -103 47 -13 28 -13 37 -2 59 10 20 11 55 4 165 -9 148 -20 205 -44 225 -21 18 -137 1 -215 -32 -57 -24 -75 -38 -78 -60 -2 -13 9 -93 23 -177 32 -198 32 -219 -1 -231 -37 -14 -45 -12 -81 18 -36 31 -33 21 -78 314 -14 92 -35 221 -48 285 -24 130 -27 251 -8 330 14 58 31 62 51 10z"/>
<path d="M5756 1148 c-9 -12 -16 -28 -16 -35 0 -13 -5 -26 -30 -72 -14 -27 -15 -74 -4 -165 l6 -59 -33 7 c-19 3 -50 9 -70 12 l-36 6 -33 118 c-30 107 -37 123 -75 160 -50 49 -76 48 -136 -9 -38 -37 -38 -37 -34 -102 10 -133 16 -181 24 -197 4 -9 15 -33 24 -52 8 -19 23 -52 32 -72 12 -26 15 -49 11 -74 -4 -19 -3 -41 2 -47 5 -7 12 -24 16 -40 3 -15 12 -27 19 -27 34 -1 65 -48 96 -145 18 -55 36 -107 41 -115 5 -8 19 -33 30 -55 15 -28 44 -55 100 -92 71 -47 80 -50 92 -36 7 9 33 29 58 45 44 28 45 30 46 81 0 31 13 86 31 137 59 163 68 353 24 524 -31 116 -134 326 -161 326 -5 0 -16 -10 -24 -22z m-251 -209 c21 -79 36 -115 50 -125 31 -19 173 -40 186 -27 7 7 7 40 -2 114 -10 79 -10 104 -1 107 7 2 12 9 12 14 0 6 7 28 17 49 l16 38 19 -32 c10 -18 25 -48 34 -67 8 -19 19 -44 24 -55 42 -98 62 -186 67 -300 5 -136 -6 -209 -56 -347 -17 -49 -31 -104 -31 -123 0 -28 -6 -39 -37 -60 -21 -14 -41 -25 -45 -25 -23 0 -119 76 -133 106 -8 18 -20 36 -25 39 -5 3 -26 58 -47 122 -34 104 -42 119 -75 142 -40 29 -64 84 -54 124 4 17 -7 56 -38 128 -39 93 -44 115 -50 206 l-6 102 37 26 37 25 36 -35 c30 -29 39 -51 65 -146z"/>
<path d="M5639 621 c-23 -19 -23 -19 -6 -55 9 -20 17 -43 17 -50 0 -7 11 -19 25 -26 31 -17 51 -2 65 49 17 61 13 80 -17 87 -16 3 -35 8 -44 10 -9 3 -27 -4 -40 -15z m58 -29 c8 -5 10 -17 5 -37 l-8 -29 -17 33 c-9 19 -17 36 -17 38 0 6 25 3 37 -5z"/>
</g>


</svg>