<!DOCTYPE svg PUBLIC "-//W3C//DTD SVG 20010904//EN" "http://www.w3.org/TR/2001/REC-SVG-20010904/DTD/svg10.dtd">
<svg version="1.0" xmlns="http://www.w3.org/2000/svg" width="300px" height="300px" viewBox="0 0 3000 3000" preserveAspectRatio="xMidYMid meet">
<g id="layer101" fill="#000000" stroke="none">
</g>
<g id="layer102" fill="#6875f5" stroke="none">
<path d="M1260 2893 c-222 -35 -409 -107 -591 -228 -298 -199 -508 -497 -602 -855 -27 -104 -30 -134 -34 -304 -3 -162 -1 -206 17 -298 49 -257 169 -502 336 -687 224 -248 473 -394 799 -468 114 -26 444 -26 565 0 275 59 528 196 726 392 221 221 360 485 409 783 14 81 16 142 12 285 -4 161 -8 196 -35 298 -70 268 -189 477 -381 670 -216 216 -453 342 -747 399 -83 16 -141 20 -277 19 -95 -1 -183 -3 -197 -6z"/>
</g>
<g id="layer103" fill="#f8f8fa" stroke="none">
<path d="M1295 2759 c-210 -27 -427 -116 -615 -253 -144 -105 -304 -301 -390 -479 -40 -85 -90 -244 -111 -357 -15 -85 -15 -317 0 -400 78 -418 304 -741 657 -939 397 -222 884 -218 1281 11 245 140 441 364 549 623 171 415 125 868 -129 1245 -28 41 -96 121 -151 176 -287 289 -682 424 -1091 373z m440 -78 c93 -20 206 -61 298 -108 202 -102 408 -304 524 -513 112 -202 168 -479 143 -710 -57 -533 -416 -949 -938 -1087 -132 -35 -364 -43 -497 -18 -115 21 -263 69 -345 110 -429 218 -690 637 -692 1110 -1 336 122 635 362 876 187 188 426 312 680 353 125 20 341 14 465 -13z"/>
<path d="M540 2173 c-30 -11 -50 -37 -50 -65 0 -16 20 -72 44 -126 24 -53 110 -245 190 -427 166 -375 218 -462 329 -555 84 -72 202 -134 288 -155 142 -33 351 -12 549 57 63 22 136 47 161 55 25 9 57 13 70 10 13 -3 60 -34 104 -68 120 -92 161 -114 189 -101 26 12 36 38 26 67 -4 11 -68 64 -143 118 -99 71 -143 97 -165 97 -17 0 -91 -22 -165 -49 -205 -75 -273 -93 -373 -99 -243 -13 -474 109 -576 303 -154 296 -54 631 233 775 109 55 184 73 314 74 103 1 114 -1 175 -30 176 -84 269 -280 240 -508 -18 -141 -86 -238 -205 -292 -155 -71 -306 -48 -420 64 -63 62 -89 120 -89 197 1 72 20 119 70 175 73 80 181 110 267 72 78 -35 94 -102 53 -225 -30 -90 -25 -117 23 -117 63 0 121 96 121 200 0 112 -43 175 -155 227 -49 23 -74 28 -135 28 -169 0 -293 -114 -330 -303 -42 -214 85 -384 327 -438 125 -28 266 -5 378 60 83 49 150 147 180 263 22 83 19 233 -5 329 -43 169 -114 266 -243 329 -126 62 -166 65 -745 64 -285 0 -524 -3 -532 -6z m640 -83 c0 -5 -22 -21 -48 -34 -26 -13 -79 -58 -118 -98 -81 -85 -129 -184 -148 -301 -6 -37 -15 -66 -20 -64 -5 2 -43 77 -83 168 -135 301 -136 302 -111 327 15 15 528 17 528 2z"/>
</g>


</svg>